<?xml version="1.0" encoding="UTF-8"?>
<svg xmlns="http://www.w3.org/2000/svg" id="Layer_2" viewBox="0 0 640 420" role="img" aria-labelledby="title desc">
  <title id="title">Animated TRUST wordmark</title>
  <desc id="desc">Outlined letters draw into place, followed by a single accent point.</desc>
  <defs>
    <style>.cls-1{fill:none;stroke:#0c0c0c;stroke-miterlimit:10;stroke-linecap:round;stroke-linejoin:round;stroke-dasharray:1;stroke-dashoffset:1;opacity:0;animation:letter 6s cubic-bezier(.3,.75,.25,1) forwards}.l2{animation-delay:.1s}.l3{animation-delay:.2s}.l4{animation-delay:.3s}.l5{animation-delay:.4s}.cls-2{fill:#ffd600;opacity:0;transform-box:fill-box;transform-origin:center;animation:point 6s cubic-bezier(.2,.8,.2,1) forwards}@keyframes letter{0%,7%{opacity:0;stroke-dashoffset:1}16%{opacity:.18}54%,100%{opacity:.18;stroke-dashoffset:0}}@keyframes point{0%,57%{opacity:0;transform:scale(.2)}65%{opacity:1;transform:scale(1)}72%{transform:scale(1.5)}80%,100%{opacity:1;transform:scale(1)}}@media(prefers-reduced-motion:reduce){.cls-1,.cls-2{animation:none}.cls-1{opacity:.18;stroke-dashoffset:0}.cls-2{opacity:1}}</style>
  </defs>
  <g id="Trust" transform="translate(167.594 160.7644) scale(.86)">
    <polygon class="cls-1 l1" points=".5 31.79 32.61 31.79 32.61 118.13 64.39 118.13 64.39 31.79 96.5 31.79 96.5 3.45 .5 3.45 .5 31.79" pathLength="1"/>
    <path class="cls-1 l2" d="M179.64,75.29c6.82-3.22,11.9-7.75,15.24-13.6,3.33-5.84,5-12.48,5-19.9s-1.67-14.17-5-19.9c-3.33-5.73-8.41-10.24-15.24-13.52-6.83-3.28-15.48-4.91-25.97-4.91h-45.05v114.68h31.78v-38.01h6.69l22.63,38.01h37.02l-28.66-42.18c.52-.22,1.05-.43,1.55-.66ZM151.05,30.32c3.38,0,6.23.49,8.52,1.47s4.07,2.43,5.32,4.34c1.25,1.91,1.88,4.23,1.88,6.96s-.63,5.08-1.88,7.04c-1.26,1.97-3.03,3.44-5.32,4.42s-5.13,1.47-8.52,1.47h-10.65v-25.72h10.65Z" pathLength="1"/>
    <path class="cls-1 l3" d="M282.77,77.83c0,5.24-1.37,9.48-4.1,12.7-2.73,3.22-6.88,4.83-12.45,4.83s-9.56-1.61-12.29-4.83c-2.73-3.22-4.1-7.46-4.1-12.7V3.45h-31.78v77c0,7.76,1.25,14.36,3.77,19.82,2.51,5.46,5.98,9.91,10.4,13.35,4.42,3.44,9.56,5.98,15.4,7.62,5.84,1.64,12.04,2.46,18.59,2.46s12.89-.82,18.68-2.46c5.79-1.64,10.92-4.18,15.4-7.62,4.48-3.44,7.97-7.89,10.48-13.35,2.51-5.46,3.77-12.07,3.77-19.82V3.45h-31.78v74.38Z" pathLength="1"/>
    <path class="cls-1 l4" d="M417.43,62.67c-2.62-2.89-5.71-5.41-9.26-7.54-3.55-2.13-7.45-3.96-11.71-5.49-4.92-1.75-9.26-3.36-13.02-4.83-3.77-1.47-6.72-3.06-8.85-4.75-2.13-1.69-3.19-3.79-3.19-6.31,0-2.18.93-3.93,2.79-5.24,1.86-1.31,4.37-1.97,7.54-1.97,2.51,0,4.97.49,7.37,1.47,2.4.98,4.67,2.38,6.8,4.18,2.13,1.8,4.01,4.07,5.65,6.8l23.92-13.27c-2.08-3.93-5.03-7.84-8.85-11.71-3.82-3.88-8.68-7.1-14.58-9.67-5.9-2.56-12.89-3.85-20.97-3.85s-14.8,1.31-21.13,3.93c-6.33,2.62-11.41,6.42-15.24,11.39-3.82,4.97-5.73,11.06-5.73,18.27,0,5.68,1.07,10.59,3.19,14.74,2.13,4.15,4.8,7.65,8.03,10.48,3.22,2.84,6.58,5.16,10.08,6.96,3.49,1.8,6.66,3.25,9.5,4.34,5.79,2.19,10.29,4.04,13.52,5.57,3.22,1.53,5.49,3.03,6.8,4.51s1.97,3.3,1.97,5.49c0,3.06-1.15,5.38-3.44,6.96-2.29,1.58-5.19,2.38-8.68,2.38s-7.1-.76-10.48-2.29c-3.39-1.53-6.5-3.74-9.34-6.64-2.84-2.89-5.41-6.36-7.7-10.4l-21.62,15.73c2.51,5.68,6.23,10.84,11.14,15.48,4.91,4.64,10.73,8.3,17.45,10.98,6.72,2.68,14.01,4.01,21.87,4.01,5.57,0,11.03-.79,16.38-2.38,5.35-1.58,10.13-3.93,14.33-7.04,4.2-3.11,7.54-7.02,9.99-11.71,2.46-4.7,3.69-10.1,3.69-16.22,0-4.59-.71-8.74-2.13-12.45-1.42-3.71-3.44-7.02-6.06-9.91Z" pathLength="1"/>
    <polygon class="cls-1 l5" points="432.01 3.45 432.01 31.79 464.12 31.79 464.12 118.13 495.9 118.13 495.9 31.79 528.01 31.79 528.01 3.45 432.01 3.45" pathLength="1"/>
    <circle class="cls-2" cx="512.1" cy="144.46" r="11"/>
  </g>
</svg>
