<?xml version="1.0" encoding="UTF-8"?>
<svg xmlns="http://www.w3.org/2000/svg" id="Layer_2" viewBox="0 0 640 420" role="img" aria-labelledby="title desc">
  <title id="title">Animated CLEAR wordmark</title>
  <desc id="desc">Outlined letters draw into place, followed by a single accent point.</desc>
  <defs>
    <style>.cls-1{fill:none;stroke:#0c0c0c;stroke-miterlimit:10;stroke-linecap:round;stroke-linejoin:round;stroke-dasharray:1;stroke-dashoffset:1;opacity:0;animation:letter 6s cubic-bezier(.3,.75,.25,1) forwards}.l2{animation-delay:.1s}.l3{animation-delay:.2s}.l4{animation-delay:.3s}.l5{animation-delay:.4s}.cls-2{fill:#00b4ff;opacity:0;transform-box:fill-box;transform-origin:center;animation:point 6s cubic-bezier(.2,.8,.2,1) forwards}@keyframes letter{0%,7%{opacity:0;stroke-dashoffset:1}16%{opacity:.18}54%,100%{opacity:.18;stroke-dashoffset:0}}@keyframes point{0%,57%{opacity:0;transform:scale(.2)}65%{opacity:1;transform:scale(1)}72%{transform:scale(1.5)}80%,100%{opacity:1;transform:scale(1)}}@media(prefers-reduced-motion:reduce){.cls-1,.cls-2{animation:none}.cls-1{opacity:.18;stroke-dashoffset:0}.cls-2{opacity:1}}</style>
  </defs>
  <g id="CLEAR" transform="translate(160.413 156.1634) scale(.86)">
    <path class="cls-1 l1" d="M65.05,5.85c-9.5,0-18.24,1.42-26.21,4.26-7.97,2.84-14.8,6.94-20.48,12.29-5.68,5.35-10.08,11.71-13.19,19.09-3.11,7.37-4.67,15.59-4.67,24.66s1.56,17.28,4.67,24.66c3.11,7.37,7.51,13.74,13.19,19.08,5.68,5.35,12.5,9.45,20.48,12.29,7.97,2.84,16.71,4.26,26.21,4.26,8.41,0,15.32-1.06,20.72-3.19s10.35-4.83,14.83-8.11v-33.42c-2.4,2.51-5.19,4.89-8.35,7.13-3.17,2.24-6.77,4.07-10.81,5.49-4.04,1.42-8.79,2.13-14.25,2.13-5.79,0-11.09-1.17-15.89-3.52-4.81-2.35-8.66-5.79-11.55-10.32-2.9-4.53-4.34-10.02-4.34-16.46s1.45-11.93,4.34-16.46c2.89-4.53,6.74-7.97,11.55-10.32,4.8-2.35,10.1-3.52,15.89-3.52,5.46,0,10.21.71,14.25,2.13,4.04,1.42,7.64,3.25,10.81,5.49,3.17,2.24,5.95,4.62,8.35,7.13V17.15c-4.48-3.38-9.42-6.12-14.83-8.19-5.41-2.07-12.32-3.11-20.72-3.11Z" pathLength="1"/>
    <polygon class="cls-1 l2" points="154.33 8.8 122.55 8.8 122.55 123.48 200.69 123.48 200.69 96.45 154.33 96.45 154.33 8.8" pathLength="1"/>
    <polygon class="cls-1 l3" points="234.44 8.8 212.81 8.8 212.81 123.48 234.44 123.48 243.29 123.48 292.27 123.48 292.27 97.76 243.29 97.76 243.29 76.29 288.99 76.29 288.99 51.39 243.29 51.39 243.29 34.52 292.27 34.52 292.27 8.8 243.29 8.8 234.44 8.8" pathLength="1"/>
    <path class="cls-1 l4" d="M301.93,123.48h36.04l9.37-18.51h33.86l9.68,18.51h36.04L364.35,1.1l-62.42,122.38ZM375.74,81.54h-22.66l11.27-25.72,11.39,25.72Z" pathLength="1"/>
    <path class="cls-1 l5" d="M499.34,123.48h37.02l-28.66-42.18c.52-.22,1.05-.43,1.55-.66,6.82-3.22,11.9-7.75,15.24-13.6,3.33-5.84,5-12.48,5-19.9s-1.67-14.17-5-19.9c-3.33-5.73-8.41-10.24-15.24-13.52-6.83-3.28-15.48-4.91-25.97-4.91h-45.05v114.68h31.78v-38.01h6.69l22.63,38.01ZM480.67,35.67c3.38,0,6.22.49,8.52,1.47s4.07,2.43,5.32,4.34c1.25,1.91,1.88,4.23,1.88,6.96s-.63,5.08-1.88,7.04c-1.26,1.97-3.03,3.44-5.32,4.42s-5.13,1.47-8.52,1.47h-10.65v-25.72h10.65Z" pathLength="1"/>
    <circle class="cls-2" cx="520.45" cy="149.81" r="11"/>
  </g>
</svg>
