<?xml version="1.0" encoding="UTF-8"?>
<svg id="Layer_1" xmlns="http://www.w3.org/2000/svg" version="1.1" viewBox="0 0 512 512">
  <!-- Generator: Adobe Illustrator 30.5.1, SVG Export Plug-In . SVG Version: 2.1.4 Build 3)  -->
  <defs>
    <style>
      .st0 {
        fill: #ff9d00;
      }

      .st1 {
        fill: #0c0c0c;
      }
    </style>
  </defs>
  <rect class="st1" width="512" height="512"/>
  <g>
    <path class="st0" d="M142.8,259.5l-2.9,12-50.8,40.5-56-26.8L245.5,118.8l3.7,269.8-56.3-27-.3-62.5,7.8-11.8,2.9-80.4-60.4,52.5ZM128.1,235.4l101.7,48.7-14.9,39.3-108.4-51.9,21.6-36.1Z"/>
    <path class="st0" d="M304.7,230.3h36.7c6.3,0,11.6-1,16.1-2.9,4.4-1.9,7.8-4.7,10.2-8.3,2.4-3.6,3.6-8,3.6-13.2,0-7.8-2.7-13.6-8-17.5-5.3-3.9-12.6-5.8-21.9-5.8h-22.7v142.3h27.9c7.1,0,13.5-.9,19.2-2.8,5.6-1.8,10.1-4.9,13.5-9.1,3.4-4.2,5-10,5-17.4s-1-8.9-2.9-12.3c-1.9-3.5-4.7-6.3-8.1-8.4-3.5-2.2-7.4-3.7-11.9-4.7-4.4-1-9.4-1.5-14.8-1.5h-41.9v-29.9h48.1c11,0,21.8,1.2,32.2,3.6,10.4,2.4,19.8,6.2,28.3,11.5,8.4,5.3,15.2,12,20.3,20.1,5.1,8.1,7.6,17.9,7.6,29.4s-3.6,27.4-10.9,36.7c-7.3,9.3-17.5,16.2-30.7,20.6-13.2,4.4-28.8,6.7-46.8,6.7h-89v-227.4h83.5c15.8,0,29.7,2.1,41.7,6.3,12,4.2,21.5,10.6,28.6,19.2,7,8.6,10.6,19.3,10.6,32.3s-3.5,22.1-10.6,30.5c-7,8.4-16.6,14.9-28.6,19.3-12,4.4-25.9,6.7-41.7,6.7h-42.6v-24Z"/>
  </g>
</svg>