<?xml version="1.0" encoding="UTF-8"?>
<svg id="Layer_1" xmlns="http://www.w3.org/2000/svg" version="1.1" viewBox="0 0 1090.5 127.8">
  <!-- Generator: Adobe Illustrator 30.2.1, SVG Export Plug-In . SVG Version: 2.1.1 Build 1)  -->
  <g>
    <path d="M21.4,102.6L54.2,28.1h14.6l33,74.4h-12.5l-9.5-22.1h-36.7l-9.5,22.1h-12.2ZM47.2,71.1h28.5l-14.2-32.9-14.3,32.9Z"/>
    <path d="M247.1,102.6l32.9-74.4h14.6l33,74.4h-12.6l-9.5-22.1h-36.6l-9.5,22.1h-12.2ZM272.9,71.1h28.5l-14.2-32.9-14.3,32.9Z"/>
    <path d="M367.2,45.3v57.2h-11.2V28.1h15.2l29.6,63.9,29.6-63.9h15.3v74.4h-11.2v-57.2l-27.4,57.2h-12.5l-27.4-57.2Z"/>
    <path d="M525.1,28.1h33.3c14,0,25.1,5.2,25.1,18.5s-7.6,15.4-15.8,16.5c13.2,1.6,20.7,8.8,20.7,19.5s-10.8,20-27.5,20h-35.8V28.1h0ZM536.4,38.2v21.1h20.5c8.7,0,14.6-3.4,14.6-10.7s-5.6-10.4-14-10.4h-21ZM536.4,68.3v24.3h23.5c9.2,0,16.2-3.2,16.2-12.1s-7.2-12.1-16.8-12.1h-22.9Z"/>
    <path d="M612.5,102.6l32.9-74.4h14.6l33,74.4h-12.5l-9.5-22.1h-36.6l-9.5,22.1h-12.3ZM638.3,71.1h28.5l-14.2-32.9-14.3,32.9Z"/>
    <path d="M754.5,28.1c17.6,0,28.8,7.1,28.8,22.9s-10.8,21.4-26.3,21.4h-.2l27.5,30h-14.1l-26-30h-11.7v30h-11.2V28.1h33.2ZM732.6,38.2v25.9h21.6c10.8,0,17.5-4,17.5-12.8s-6.7-13-17.5-13h-21.6Z"/>
    <path d="M869.7,84.5V28.1h11.2v74.4h-10.6l-43.1-55.8v55.8h-11.2V28.1h11.1l42.5,56.4Z"/>
    <path d="M974.8,28.1v10h-45.4v21.7h39.7v10h-39.7v22.6h45.4v10h-56.6V28.1h56.6Z"/>
    <path d="M1035.9,71.7l-10.2-2.9c-11.2-3.2-22-7.5-22-20.8s12.5-21.1,27.6-21.1,22.1,3.8,27,6.9v11.6c-6.1-4-16.8-8.3-27.3-8.3s-15.4,4.1-15.4,10,6.6,9.3,15.7,12.1l8.5,2.5c13.1,3.8,22.9,7.8,22.9,21.5s-11.8,20.4-27.6,20.4-23.7-4-29.9-8v-11.1c7.3,4.9,19.4,9.3,30.3,9.3s15.7-4,15.7-10c0-6.7-5.6-9.2-15.3-12.1Z"/>
  </g>
  <path d="M131.2,71.1c0-27.6,17-46.8,42.1-46.8s41.9,19.3,41.9,46.8v31.3h-84.1v-31.3ZM142.5,92h61.4v-20.9c0-20.2-12-34.2-30.6-34.2s-30.8,14-30.8,34.2c0,0,0,20.9,0,20.9Z"/>
</svg>