<?xml version="1.0" encoding="UTF-8"?>
<svg xmlns="http://www.w3.org/2000/svg" id="Layer_2" viewBox="0 0 640 420" role="img" aria-labelledby="title desc">
  <title id="title">Animated FOUND wordmark</title>
  <desc id="desc">Outlined letters draw into place, followed by a single accent point.</desc>
  <defs>
    <style>.cls-1{fill:none;stroke:#0c0c0c;stroke-miterlimit:10;stroke-linecap:round;stroke-linejoin:round;stroke-dasharray:1;stroke-dashoffset:1;opacity:0;animation:letter 6s cubic-bezier(.3,.75,.25,1) forwards}.l2{animation-delay:.1s}.l3{animation-delay:.2s}.l4{animation-delay:.3s}.l5{animation-delay:.4s}.cls-2{fill:#ff2e88;opacity:0;transform-box:fill-box;transform-origin:center;animation:point 6s cubic-bezier(.2,.8,.2,1) forwards}@keyframes letter{0%,7%{opacity:0;stroke-dashoffset:1}16%{opacity:.18}54%,100%{opacity:.18;stroke-dashoffset:0}}@keyframes point{0%,57%{opacity:0;transform:scale(.2)}65%{opacity:1;transform:scale(1)}72%{transform:scale(1.5)}80%,100%{opacity:1;transform:scale(1)}}@media(prefers-reduced-motion:reduce){.cls-1,.cls-2{animation:none}.cls-1{opacity:.18;stroke-dashoffset:0}.cls-2{opacity:1}}</style>
  </defs>
  <g id="Found" transform="translate(114.6266 157.8834) scale(.86)">
    <polygon class="cls-1 l1" points="22.12 6.8 .5 6.8 .5 121.48 30.97 121.48 30.97 78.39 71.76 78.39 71.76 53.33 30.97 53.33 30.97 33.83 73.4 33.83 73.4 6.8 30.97 6.8 22.12 6.8" pathLength="1"/>
    <path class="cls-1 l2" d="M194.79,20.48c-5.68-5.3-12.31-9.39-19.9-12.29-7.59-2.89-15.92-4.34-24.98-4.34s-17.07,1.45-24.66,4.34c-7.59,2.9-14.23,6.99-19.9,12.29-5.68,5.3-10.13,11.63-13.35,19-3.22,7.37-4.83,15.59-4.83,24.66s1.53,17.2,4.59,24.74c3.06,7.54,7.4,14.06,13.02,19.58,5.62,5.52,12.26,9.78,19.9,12.78,7.64,3,16.06,4.5,25.23,4.5s17.61-1.5,25.31-4.5c7.7-3,14.33-7.26,19.9-12.78,5.57-5.51,9.88-12.04,12.94-19.58,3.06-7.54,4.59-15.78,4.59-24.74s-1.56-17.28-4.67-24.66c-3.11-7.37-7.51-13.71-13.19-19ZM175.46,80.44c-2.4,4.75-5.76,8.46-10.08,11.14-4.32,2.68-9.48,4.01-15.48,4.01s-11.03-1.34-15.4-4.01c-4.37-2.67-7.76-6.39-10.16-11.14-2.4-4.75-3.6-10.18-3.6-16.3s1.2-11.69,3.6-16.38c2.4-4.69,5.79-8.38,10.16-11.06,4.37-2.67,9.5-4.01,15.4-4.01,6.23,0,11.49,1.34,15.81,4.01,4.31,2.68,7.62,6.36,9.91,11.06,2.29,4.7,3.44,10.16,3.44,16.38s-1.2,11.55-3.6,16.3Z" pathLength="1"/>
    <path class="cls-1 l3" d="M293.58,81.18c0,5.24-1.37,9.48-4.1,12.7-2.73,3.22-6.88,4.83-12.45,4.83s-9.56-1.61-12.29-4.83c-2.73-3.22-4.1-7.46-4.1-12.7V6.8h-31.78v77c0,7.76,1.25,14.36,3.77,19.82,2.51,5.46,5.98,9.91,10.4,13.35,4.42,3.44,9.56,5.98,15.4,7.62,5.84,1.64,12.04,2.46,18.59,2.46s12.89-.82,18.68-2.46c5.79-1.64,10.92-4.18,15.4-7.62,4.48-3.44,7.97-7.89,10.48-13.35,2.51-5.46,3.77-12.07,3.77-19.82V6.8h-31.78v74.38Z" pathLength="1"/>
    <polygon class="cls-1 l4" points="424.97 65.12 348.13 1.07 348.13 121.48 378.6 121.48 378.6 63.16 455.44 127.21 455.44 6.8 424.97 6.8 424.97 65.12" pathLength="1"/>
    <path class="cls-1 l5" d="M577.08,33.51c-5.08-8.52-12.29-15.1-21.62-19.74-9.34-4.64-20.51-6.96-33.5-6.96h-42.92v114.68h42.92c13,0,24.16-2.32,33.5-6.96,9.34-4.64,16.55-11.25,21.62-19.82,5.08-8.57,7.62-18.76,7.62-30.55s-2.54-22.12-7.62-30.64ZM548.9,78.97c-1.8,3.88-4.18,6.88-7.13,9.01-2.95,2.13-6.25,3.6-9.91,4.42-3.66.82-7.4,1.23-11.22,1.23h-8.68v-58.98h8.68c3.82,0,7.56.41,11.22,1.23,3.66.82,6.96,2.29,9.91,4.42,2.95,2.13,5.32,5.13,7.13,9.01,1.8,3.88,2.7,8.82,2.7,14.83s-.9,10.95-2.7,14.83Z" pathLength="1"/>
    <circle class="cls-2" cx="573.69" cy="147.81" r="11"/>
  </g>
</svg>
