<?xml version="1.0" encoding="UTF-8"?>
<svg xmlns="http://www.w3.org/2000/svg" id="Layer_2" viewBox="0 0 640 420" role="img" aria-labelledby="title desc">
  <title id="title">Animated IDEAS wordmark</title>
  <desc id="desc">Outlined letters draw into place, followed by a single accent point.</desc>
  <defs>
    <style>.cls-1{fill:none;stroke:#0c0c0c;stroke-miterlimit:10;stroke-linecap:round;stroke-linejoin:round;stroke-dasharray:1;stroke-dashoffset:1;opacity:0;animation:letter 6s cubic-bezier(.3,.75,.25,1) forwards}.l2{animation-delay:.1s}.l3{animation-delay:.2s}.l4{animation-delay:.3s}.l5{animation-delay:.4s}.cls-2{fill:#00b4ff;opacity:0;transform-box:fill-box;transform-origin:center;animation:point 6s cubic-bezier(.2,.8,.2,1) forwards}@keyframes letter{0%,7%{opacity:0;stroke-dashoffset:1}16%{opacity:.18}54%,100%{opacity:.18;stroke-dashoffset:0}}@keyframes point{0%,57%{opacity:0;transform:scale(.2)}65%{opacity:1;transform:scale(1)}72%{transform:scale(1.5)}80%,100%{opacity:1;transform:scale(1)}}@media(prefers-reduced-motion:reduce){.cls-1,.cls-2{animation:none}.cls-1{opacity:.18;stroke-dashoffset:0}.cls-2{opacity:1}}</style>
  </defs>
  <g id="IDEAS" transform="translate(192.8178 156.1634) scale(.86)">
    <rect class="cls-1 l1" x=".5" y="8.8" width="32.44" height="114.68" pathLength="1"/>
    <path class="cls-1 l2" d="M132.95,15.76c-9.34-4.64-20.51-6.96-33.5-6.96h-42.92v114.68h42.92c13,0,24.16-2.32,33.5-6.96,9.34-4.64,16.55-11.25,21.62-19.82,5.08-8.57,7.62-18.76,7.62-30.55s-2.54-22.12-7.62-30.64c-5.08-8.52-12.29-15.1-21.62-19.74ZM126.4,80.96c-1.8,3.88-4.18,6.88-7.13,9.01-2.95,2.13-6.25,3.6-9.91,4.42-3.66.82-7.4,1.23-11.22,1.23h-8.68v-58.98h8.68c3.82,0,7.56.41,11.22,1.23,3.66.82,6.96,2.29,9.91,4.42,2.95,2.13,5.32,5.13,7.13,9.01,1.8,3.88,2.7,8.82,2.7,14.83s-.9,10.95-2.7,14.83Z" pathLength="1"/>
    <polygon class="cls-1 l3" points="200.86 8.8 179.23 8.8 179.23 123.48 200.86 123.48 209.7 123.48 258.69 123.48 258.69 97.76 209.7 97.76 209.7 76.29 255.41 76.29 255.41 51.39 209.7 51.39 209.7 34.52 258.69 34.52 258.69 8.8 209.7 8.8 200.86 8.8" pathLength="1"/>
    <path class="cls-1 l4" d="M268.35,123.48h36.04l9.37-18.51h33.86l9.68,18.51h36.04L330.77,1.1l-62.42,122.38ZM342.16,81.54h-22.66l11.27-25.72,11.39,25.72Z" pathLength="1"/>
    <path class="cls-1 l5" d="M490.82,77.93c-1.42-3.71-3.44-7.02-6.06-9.91-2.62-2.89-5.71-5.41-9.26-7.54-3.55-2.13-7.45-3.96-11.71-5.49-4.92-1.75-9.26-3.36-13.02-4.83-3.77-1.47-6.72-3.06-8.85-4.75-2.13-1.69-3.19-3.79-3.19-6.31,0-2.18.93-3.93,2.79-5.24,1.86-1.31,4.37-1.97,7.54-1.97,2.51,0,4.97.49,7.37,1.47,2.4.98,4.67,2.38,6.8,4.18,2.13,1.8,4.01,4.07,5.65,6.8l23.92-13.27c-2.08-3.93-5.03-7.84-8.85-11.71-3.82-3.88-8.68-7.1-14.58-9.67-5.9-2.56-12.89-3.85-20.97-3.85s-14.8,1.31-21.13,3.93c-6.33,2.62-11.41,6.42-15.24,11.39-3.82,4.97-5.73,11.06-5.73,18.27,0,5.68,1.07,10.59,3.19,14.74,2.13,4.15,4.8,7.65,8.03,10.48,3.22,2.84,6.58,5.16,10.08,6.96,3.49,1.8,6.66,3.25,9.5,4.34,5.79,2.19,10.29,4.04,13.52,5.57,3.22,1.53,5.49,3.03,6.8,4.51s1.97,3.3,1.97,5.49c0,3.06-1.15,5.38-3.44,6.96-2.29,1.58-5.19,2.38-8.68,2.38s-7.1-.76-10.48-2.29c-3.39-1.53-6.5-3.74-9.34-6.64-2.84-2.89-5.41-6.36-7.7-10.4l-21.62,15.73c2.51,5.68,6.23,10.84,11.14,15.48,4.91,4.64,10.73,8.3,17.45,10.98,6.72,2.68,14.01,4.01,21.87,4.01,5.57,0,11.03-.79,16.38-2.38,5.35-1.58,10.13-3.93,14.33-7.04,4.2-3.11,7.54-7.02,9.99-11.71,2.46-4.7,3.69-10.1,3.69-16.22,0-4.59-.71-8.74-2.13-12.45Z" pathLength="1"/>
    <circle class="cls-2" cx="482.77" cy="149.81" r="11"/>
  </g>
</svg>
