<?xml version="1.0" encoding="UTF-8"?>
<svg xmlns="http://www.w3.org/2000/svg" id="Layer_2" viewBox="0 0 640 420" role="img" aria-labelledby="title desc">
  <title id="title">Animated BUILT wordmark</title>
  <desc id="desc">Outlined letters draw into place, followed by a single accent point.</desc>
  <defs>
    <style>.cls-1{fill:none;stroke:#0c0c0c;stroke-miterlimit:10;stroke-linecap:round;stroke-linejoin:round;stroke-dasharray:1;stroke-dashoffset:1;opacity:0;animation:letter 6s cubic-bezier(.3,.75,.25,1) forwards}.l2{animation-delay:.1s}.l3{animation-delay:.2s}.l4{animation-delay:.3s}.l5{animation-delay:.4s}.cls-2{fill:#fc9803;opacity:0;transform-box:fill-box;transform-origin:center;animation:point 6s cubic-bezier(.2,.8,.2,1) forwards}@keyframes letter{0%,7%{opacity:0;stroke-dashoffset:1}16%{opacity:.18}54%,100%{opacity:.18;stroke-dashoffset:0}}@keyframes point{0%,57%{opacity:0;transform:scale(.2)}65%{opacity:1;transform:scale(1)}72%{transform:scale(1.5)}80%,100%{opacity:1;transform:scale(1)}}@media(prefers-reduced-motion:reduce){.cls-1,.cls-2{animation:none}.cls-1{opacity:.18;stroke-dashoffset:0}.cls-2{opacity:1}}</style>
  </defs>
  <g id="Built" transform="translate(232.825 163.3014) scale(.86)">
    <circle class="cls-2" cx="436.25" cy="141.51" r="11"/>
    <path class="cls-1 l1" d="M80.94,57.76c-2.52-1.5-5.2-2.78-8.03-3.83,4.31-2.09,7.86-4.8,10.65-8.13,3.71-4.42,5.57-9.75,5.57-15.97,0-6.55-1.86-11.98-5.57-16.3-3.71-4.31-8.76-7.56-15.15-9.75-6.39-2.18-13.68-3.28-21.87-3.28H.5v114.68h48.98c9.61,0,17.86-1.06,24.74-3.19,6.88-2.13,12.18-5.54,15.89-10.24,3.71-4.69,5.57-10.87,5.57-18.51,0-5.9-1.34-10.95-4.01-15.15-2.68-4.2-6.25-7.64-10.73-10.32ZM32.28,24.75h10.32c4.37,0,7.7.82,9.99,2.46,2.29,1.64,3.44,4.21,3.44,7.7,0,2.29-.52,4.26-1.56,5.9-1.04,1.64-2.54,2.9-4.51,3.77-1.97.88-4.42,1.31-7.37,1.31h-10.32v-21.13ZM60.3,86.26c-1.53,1.8-3.58,3.03-6.14,3.69-2.57.66-5.43.98-8.6.98h-13.27v-23.59h13.27c2.4,0,4.61.16,6.63.49,2.02.33,3.82.93,5.41,1.8,1.58.88,2.81,2.02,3.69,3.44.87,1.42,1.31,3.22,1.31,5.41,0,3.39-.77,5.98-2.29,7.78Z" pathLength="1"/>
    <path class="cls-1 l2" d="M178.25,74.88c0,5.24-1.37,9.48-4.1,12.7-2.73,3.22-6.88,4.83-12.45,4.83s-9.56-1.61-12.29-4.83c-2.73-3.22-4.1-7.46-4.1-12.7V.5h-31.78v77c0,7.76,1.25,14.36,3.77,19.82,2.51,5.46,5.98,9.91,10.4,13.35,4.42,3.44,9.56,5.98,15.4,7.62,5.84,1.64,12.04,2.46,18.59,2.46s12.89-.82,18.68-2.46c5.79-1.64,10.92-4.18,15.4-7.62,4.48-3.44,7.97-7.89,10.48-13.35,2.51-5.46,3.77-12.07,3.77-19.82V.5h-31.78v74.38Z" pathLength="1"/>
    <rect class="cls-1 l3" x="232.8" y=".5" width="32.44" height="114.68" pathLength="1"/>
    <polygon class="cls-1 l4" points="320.61 .5 288.83 .5 288.83 115.18 366.97 115.18 366.97 88.15 320.61 88.15 320.61 .5" pathLength="1"/>
    <polygon class="cls-1 l5" points="356.16 .5 356.16 28.84 388.27 28.84 388.27 115.18 420.05 115.18 420.05 28.84 452.16 28.84 452.16 .5 356.16 .5" pathLength="1"/>
  </g>
</svg>
