<?xml version="1.0" encoding="UTF-8"?>
<svg id="Layer_2" data-name="Layer 2" xmlns="http://www.w3.org/2000/svg" viewBox="0 0 192.47 67.64">
  <defs>
    <style>
      .cls-1 {
        fill: #231f20;
      }

      .cls-2 {
        fill: #f7b01a;
      }
    </style>
  </defs>
  <g id="Magazines">
    <g>
      <g>
        <path class="cls-1" d="M1.86,13.17c-.59-.33-1.05-.8-1.37-1.39-.32-.6-.49-1.29-.49-2.08V.34c0-.13.06-.19.19-.19h.97c.13,0,.19.06.19.19v9.43c0,.81.24,1.47.71,1.97.47.5,1.09.74,1.85.74s1.38-.25,1.85-.74.71-1.15.71-1.97V.34c0-.13.06-.19.19-.19h.97c.13,0,.19.06.19.19v9.35c0,.79-.16,1.48-.49,2.08-.32.6-.78,1.06-1.37,1.39-.59.33-1.28.5-2.05.5s-1.46-.16-2.05-.5Z"/>
        <path class="cls-1" d="M10.86,13.32V.34c0-.13.06-.19.19-.19h.97c.13,0,.19.06.19.19v6.34s.01.04.04.05c.03,0,.04,0,.06-.03L17.16.27c.05-.08.13-.11.25-.11h1.07c.08,0,.13.02.15.07s.01.1-.04.16l-3.82,5.23s-.01.08,0,.11l4.16,7.56c.03.05.04.09.04.11,0,.08-.06.11-.17.11h-1.11c-.11,0-.19-.04-.23-.13l-3.63-6.59c-.03-.06-.06-.06-.1,0l-1.49,1.89s-.04.06-.04.1v4.54c0,.13-.06.19-.19.19h-.97c-.13,0-.19-.06-.19-.19Z"/>
        <path class="cls-1" d="M24.81,13.32V.34c0-.13.06-.19.19-.19h3.72c1.13,0,2.03.32,2.68.97.65.65.98,1.53.98,2.65v6.11c0,1.12-.33,2-.98,2.65-.66.65-1.55.97-2.68.97h-3.72c-.13,0-.19-.06-.19-.19ZM26.24,12.33h2.5c.7-.01,1.25-.24,1.66-.7.41-.45.62-1.07.63-1.86V3.89c0-.79-.2-1.41-.61-1.87-.41-.46-.97-.69-1.68-.69h-2.5c-.05,0-.08.03-.08.08v10.84c0,.05.03.08.08.08Z"/>
        <path class="cls-1" d="M35.16,13.32V.34c0-.13.06-.19.19-.19h.97c.13,0,.19.06.19.19v12.98c0,.13-.06.19-.19.19h-.97c-.13,0-.19-.06-.19-.19Z"/>
        <path class="cls-1" d="M46.02,13.36l-2.37-5.9s-.04-.06-.08-.06h-2.46c-.05,0-.08.03-.08.08v5.84c0,.13-.06.19-.19.19h-.97c-.13,0-.19-.06-.19-.19V.34c0-.13.06-.19.19-.19h4.05c.66,0,1.25.15,1.77.46.52.3.92.74,1.2,1.3s.43,1.2.43,1.93c0,.87-.21,1.6-.63,2.21s-.99,1.02-1.72,1.22c-.05.03-.06.06-.04.1l2.46,5.92.02.08c0,.1-.06.15-.17.15h-1.01c-.1,0-.17-.05-.21-.15ZM41.04,1.41v4.83c0,.05.03.08.08.08h2.63c.66,0,1.2-.23,1.6-.69.41-.46.61-1.06.61-1.79s-.2-1.36-.61-1.81c-.41-.46-.94-.69-1.6-.69h-2.63c-.05,0-.08.03-.08.08Z"/>
        <path class="cls-1" d="M56.92,1.34h-5.73c-.05,0-.08.03-.08.08v4.73c0,.05.03.08.08.08h3.86c.13,0,.19.06.19.19v.8c0,.13-.06.19-.19.19h-3.86c-.05,0-.08.03-.08.08v4.77c0,.05.03.08.08.08h5.73c.13,0,.19.06.19.19v.8c0,.13-.06.19-.19.19h-6.97c-.13,0-.19-.06-.19-.19V.34c0-.13.06-.19.19-.19h6.97c.13,0,.19.06.19.19v.8c0,.13-.06.19-.19.19Z"/>
        <path class="cls-1" d="M60.32,12.64c-.71-.69-1.06-1.6-1.06-2.73V3.74c0-1.13.35-2.04,1.06-2.72.71-.68,1.64-1.02,2.8-1.02s2.11.34,2.82,1.01,1.06,1.57,1.06,2.69v.17c0,.13-.06.19-.19.19l-.97.04c-.13,0-.19-.06-.19-.17v-.27c0-.74-.23-1.34-.7-1.79-.46-.46-1.07-.69-1.82-.69s-1.36.23-1.81.68c-.46.45-.69,1.05-.69,1.8v6.34c0,.75.23,1.35.69,1.8.46.45,1.06.68,1.81.68s1.36-.23,1.82-.69.7-1.06.7-1.79v-.27c0-.11.06-.17.19-.17l.97.06c.13,0,.19.06.19.19v.13c0,1.12-.35,2.02-1.06,2.7-.71.68-1.64,1.02-2.82,1.02s-2.09-.34-2.8-1.03Z"/>
        <path class="cls-1" d="M76.73.34v.8c0,.13-.06.19-.19.19h-3.11c-.05,0-.08.03-.08.08v11.91c0,.13-.06.19-.19.19h-.97c-.13,0-.19-.06-.19-.19V1.41c0-.05-.03-.08-.08-.08h-3c-.13,0-.19-.06-.19-.19V.34c0-.13.06-.19.19-.19h7.62c.13,0,.19.06.19.19Z"/>
        <path class="cls-1" d="M79.79,13.18c-.59-.32-1.05-.78-1.37-1.36-.32-.59-.49-1.26-.49-2.02V3.89c0-.76.16-1.44.49-2.03.32-.59.78-1.05,1.37-1.37.59-.32,1.28-.49,2.05-.49s1.46.16,2.05.49c.59.32,1.05.78,1.38,1.37.33.59.5,1.27.5,2.03v5.9c0,.76-.17,1.44-.5,2.02-.33.59-.79,1.04-1.38,1.36-.59.32-1.28.49-2.05.49s-1.46-.16-2.05-.49ZM83.72,11.76c.47-.48.71-1.12.71-1.91V3.86c0-.8-.24-1.45-.71-1.94-.47-.49-1.09-.73-1.87-.73s-1.38.25-1.85.73c-.47.49-.71,1.14-.71,1.94v5.99c0,.79.23,1.43.71,1.91.47.48,1.09.72,1.85.72s1.4-.24,1.87-.72Z"/>
        <path class="cls-1" d="M94.92,13.36l-2.37-5.9s-.04-.06-.08-.06h-2.46c-.05,0-.08.03-.08.08v5.84c0,.13-.06.19-.19.19h-.97c-.13,0-.19-.06-.19-.19V.34c0-.13.06-.19.19-.19h4.05c.66,0,1.25.15,1.77.46.52.3.92.74,1.2,1.3s.43,1.2.43,1.93c0,.87-.21,1.6-.63,2.21s-.99,1.02-1.72,1.22c-.05.03-.06.06-.04.1l2.46,5.92.02.08c0,.1-.06.15-.17.15h-1.01c-.1,0-.17-.05-.21-.15ZM89.94,1.41v4.83c0,.05.03.08.08.08h2.63c.66,0,1.2-.23,1.6-.69.41-.46.61-1.06.61-1.79s-.2-1.36-.61-1.81c-.41-.46-.94-.69-1.6-.69h-2.63c-.05,0-.08.03-.08.08Z"/>
      </g>
      <g>
        <path class="cls-1" d="M15.68,33.36c1.61.79,2.85,1.91,3.72,3.38.87,1.47,1.32,3.25,1.36,5.33,0,3.08-.91,5.47-2.74,7.18-1.83,1.71-4.25,2.56-7.25,2.56H.66c-.34,0-.51-.17-.51-.51V16.44c0-.34.17-.51.51-.51h9.69c3.14,0,5.6.81,7.38,2.43,1.78,1.62,2.67,3.94,2.67,6.95,0,1.91-.4,3.52-1.21,4.82-.8,1.3-1.97,2.29-3.51,2.97-.17.07-.17.15,0,.26ZM3.79,19.31v12.35c0,.14.07.21.21.21h6.41c1.98,0,3.54-.56,4.69-1.69,1.14-1.13,1.72-2.65,1.72-4.56,0-2.02-.57-3.6-1.72-4.77-1.15-1.16-2.71-1.74-4.69-1.74H3.99c-.14,0-.21.07-.21.21ZM15.37,46.74c1.16-1.23,1.74-2.9,1.74-5.02s-.59-3.84-1.77-5.07c-1.18-1.23-2.78-1.85-4.79-1.85H3.99c-.14,0-.21.07-.21.21v13.38c0,.14.07.21.21.21h6.66c1.98,0,3.55-.62,4.72-1.85Z"/>
        <path class="cls-1" d="M32.36,50.89c-1.59-.89-2.82-2.14-3.69-3.74-.87-1.61-1.31-3.47-1.31-5.59v-25.12c0-.34.17-.51.51-.51h2.61c.34,0,.51.17.51.51v25.32c0,2.19.63,3.95,1.9,5.28,1.26,1.33,2.92,2,4.97,2s3.71-.67,4.97-2c1.26-1.33,1.9-3.09,1.9-5.28v-25.32c0-.34.17-.51.51-.51h2.61c.34,0,.51.17.51.51v25.12c0,2.12-.44,3.98-1.31,5.59-.87,1.61-2.1,2.85-3.69,3.74-1.59.89-3.43,1.33-5.51,1.33s-3.92-.44-5.51-1.33Z"/>
        <path class="cls-1" d="M57.53,49.68c-1.9-1.69-2.84-3.96-2.84-6.79v-1.38c0-.34.17-.51.51-.51h2.51c.34,0,.51.17.51.51v1.18c0,1.91.65,3.45,1.95,4.61,1.3,1.16,3.02,1.74,5.18,1.74,2.02,0,3.6-.55,4.77-1.64,1.16-1.09,1.74-2.53,1.74-4.31,0-1.16-.27-2.17-.82-3.02-.55-.85-1.35-1.64-2.41-2.36-1.06-.72-2.58-1.62-4.56-2.72-2.12-1.13-3.79-2.12-5-2.97-1.21-.85-2.2-1.9-2.95-3.13-.75-1.23-1.13-2.73-1.13-4.51,0-2.77.89-4.94,2.67-6.51,1.78-1.57,4.15-2.36,7.12-2.36,3.18,0,5.71.87,7.59,2.61,1.88,1.74,2.82,4.05,2.82,6.92v1.18c0,.34-.17.51-.51.51h-2.56c-.34,0-.51-.17-.51-.51v-1.13c0-1.91-.62-3.46-1.85-4.64-1.23-1.18-2.92-1.77-5.07-1.77-1.91,0-3.41.5-4.49,1.49-1.08.99-1.61,2.39-1.61,4.2,0,1.16.26,2.14.77,2.92.51.79,1.26,1.5,2.23,2.15.97.65,2.47,1.52,4.49,2.61,2.32,1.3,4.11,2.4,5.36,3.31,1.25.91,2.24,1.95,2.97,3.13.73,1.18,1.1,2.62,1.1,4.33,0,2.87-.92,5.15-2.77,6.84-1.85,1.69-4.36,2.54-7.54,2.54s-5.77-.85-7.66-2.54Z"/>
        <path class="cls-1" d="M82.16,51.3V16.44c0-.34.17-.51.51-.51h2.61c.34,0,.51.17.51.51v34.86c0,.34-.17.51-.51.51h-2.61c-.34,0-.51-.17-.51-.51Z"/>
        <path class="cls-1" d="M112.66,15.93h2.61c.34,0,.51.17.51.51v34.86c0,.34-.17.51-.51.51h-2.77c-.31,0-.51-.12-.61-.36l-13.74-27.42c-.07-.07-.13-.1-.18-.1s-.08.05-.08.15l.05,27.22c0,.34-.17.51-.51.51h-2.61c-.34,0-.51-.17-.51-.51V16.44c0-.34.17-.51.51-.51h2.77c.31,0,.51.12.62.36l13.74,27.53c.07.07.13.1.18.1s.08-.05.08-.15l-.05-27.32c0-.34.17-.51.51-.51Z"/>
        <path class="cls-1" d="M143.16,19.11h-15.38c-.14,0-.21.07-.21.21v12.71c0,.14.07.21.21.21h10.35c.34,0,.51.17.51.51v2.15c0,.34-.17.51-.51.51h-10.35c-.14,0-.21.07-.21.21v12.81c0,.14.07.21.21.21h15.38c.34,0,.51.17.51.51v2.15c0,.34-.17.51-.51.51h-18.71c-.34,0-.51-.17-.51-.51V16.44c0-.34.17-.51.51-.51h18.71c.34,0,.51.17.51.51v2.15c0,.34-.17.51-.51.51Z"/>
        <path class="cls-1" d="M148.88,49.68c-1.9-1.69-2.84-3.96-2.84-6.79v-1.38c0-.34.17-.51.51-.51h2.51c.34,0,.51.17.51.51v1.18c0,1.91.65,3.45,1.95,4.61,1.3,1.16,3.02,1.74,5.18,1.74,2.02,0,3.6-.55,4.77-1.64,1.16-1.09,1.74-2.53,1.74-4.31,0-1.16-.27-2.17-.82-3.02-.55-.85-1.35-1.64-2.41-2.36-1.06-.72-2.58-1.62-4.56-2.72-2.12-1.13-3.79-2.12-5-2.97-1.21-.85-2.2-1.9-2.95-3.13-.75-1.23-1.13-2.73-1.13-4.51,0-2.77.89-4.94,2.67-6.51,1.78-1.57,4.15-2.36,7.12-2.36,3.18,0,5.71.87,7.59,2.61,1.88,1.74,2.82,4.05,2.82,6.92v1.18c0,.34-.17.51-.51.51h-2.56c-.34,0-.51-.17-.51-.51v-1.13c0-1.91-.62-3.46-1.85-4.64-1.23-1.18-2.92-1.77-5.07-1.77-1.91,0-3.41.5-4.49,1.49-1.08.99-1.61,2.39-1.61,4.2,0,1.16.26,2.14.77,2.92.51.79,1.26,1.5,2.23,2.15.97.65,2.47,1.52,4.49,2.61,2.32,1.3,4.11,2.4,5.36,3.31,1.25.91,2.24,1.95,2.97,3.13.73,1.18,1.1,2.62,1.1,4.33,0,2.87-.92,5.15-2.77,6.84-1.85,1.69-4.36,2.54-7.54,2.54s-5.77-.85-7.66-2.54Z"/>
        <path class="cls-1" d="M174.51,49.68c-1.9-1.69-2.84-3.96-2.84-6.79v-1.38c0-.34.17-.51.51-.51h2.51c.34,0,.51.17.51.51v1.18c0,1.91.65,3.45,1.95,4.61,1.3,1.16,3.02,1.74,5.18,1.74,2.02,0,3.6-.55,4.77-1.64,1.16-1.09,1.74-2.53,1.74-4.31,0-1.16-.27-2.17-.82-3.02-.55-.85-1.35-1.64-2.41-2.36-1.06-.72-2.58-1.62-4.56-2.72-2.12-1.13-3.79-2.12-5-2.97-1.21-.85-2.2-1.9-2.95-3.13-.75-1.23-1.13-2.73-1.13-4.51,0-2.77.89-4.94,2.67-6.51,1.78-1.57,4.15-2.36,7.12-2.36,3.18,0,5.71.87,7.59,2.61,1.88,1.74,2.82,4.05,2.82,6.92v1.18c0,.34-.17.51-.51.51h-2.56c-.34,0-.51-.17-.51-.51v-1.13c0-1.91-.62-3.46-1.85-4.64-1.23-1.18-2.92-1.77-5.07-1.77-1.91,0-3.41.5-4.49,1.49-1.08.99-1.61,2.39-1.61,4.2,0,1.16.26,2.14.77,2.92.51.79,1.26,1.5,2.23,2.15.97.65,2.47,1.52,4.49,2.61,2.32,1.3,4.11,2.4,5.36,3.31,1.25.91,2.24,1.95,2.97,3.13.73,1.18,1.1,2.62,1.1,4.33,0,2.87-.92,5.15-2.77,6.84-1.85,1.69-4.36,2.54-7.54,2.54s-5.77-.85-7.66-2.54Z"/>
      </g>
      <g>
        <path class="cls-2" d="M116.86,54.12h.99c.13,0,.19.06.19.19v12.98c0,.13-.06.19-.19.19h-.97c-.13,0-.19-.06-.19-.19v-10.38s-.01-.06-.04-.08c-.03-.01-.04,0-.06.04l-2.54,4.41c-.06.09-.14.13-.23.13h-.21c-.09,0-.17-.04-.23-.13l-2.56-4.39s-.03-.05-.06-.04c-.03.01-.04.04-.04.08v10.36c0,.13-.06.19-.19.19h-.97c-.13,0-.19-.06-.19-.19v-12.98c0-.13.06-.19.19-.19h.99c.09,0,.17.04.23.13l2.88,4.91s.03.02.06.02.04,0,.06-.02l2.84-4.91c.06-.09.14-.13.23-.13Z"/>
        <path class="cls-2" d="M127.46,67.31l-.63-2.39s-.04-.06-.1-.06h-4.56c-.05,0-.08.02-.1.06l-.63,2.39c-.03.11-.1.17-.21.17h-.99c-.06,0-.11-.02-.14-.06-.03-.04-.04-.09-.03-.15l3.57-12.98c.03-.11.1-.17.21-.17h1.22c.11,0,.18.06.21.17l3.57,12.98.02.06c0,.1-.06.15-.19.15h-1.01c-.11,0-.18-.06-.21-.17ZM122.41,63.73s.04.03.07.03h3.95s.05,0,.07-.03.02-.04,0-.05l-2.02-7.67s-.03-.04-.04-.04-.03.01-.04.04l-2,7.67s0,.03,0,.05Z"/>
        <path class="cls-2" d="M131.38,66.63c-.71-.67-1.06-1.57-1.06-2.69v-6.26c0-1.12.35-2.02,1.06-2.69.71-.67,1.64-1.01,2.8-1.01.76,0,1.43.15,2.01.46.58.31,1.03.73,1.36,1.28.32.55.49,1.18.49,1.89v.53c0,.13-.06.19-.19.19h-.97c-.13,0-.19-.06-.19-.19v-.53c0-.73-.23-1.31-.69-1.77s-1.06-.68-1.81-.68-1.35.23-1.81.68c-.46.45-.69,1.05-.69,1.8v6.34c0,.74.23,1.34.7,1.79.46.46,1.07.69,1.82.69s1.35-.22,1.8-.65.68-1.02.68-1.76v-2.08c0-.05-.03-.08-.08-.08h-2.23c-.13,0-.19-.06-.19-.19v-.8c0-.13.06-.19.19-.19h3.47c.13,0,.19.06.19.19v2.98c0,1.16-.35,2.07-1.05,2.75-.7.67-1.64,1.01-2.81,1.01s-2.09-.34-2.8-1.01Z"/>
        <path class="cls-2" d="M147.06,67.31l-.63-2.39s-.04-.06-.1-.06h-4.56c-.05,0-.08.02-.1.06l-.63,2.39c-.03.11-.1.17-.21.17h-.99c-.06,0-.11-.02-.14-.06-.03-.04-.04-.09-.03-.15l3.57-12.98c.03-.11.1-.17.21-.17h1.22c.11,0,.18.06.21.17l3.57,12.98.02.06c0,.1-.06.15-.19.15h-1.01c-.11,0-.18-.06-.21-.17ZM142.01,63.73s.04.03.07.03h3.95s.05,0,.07-.03.02-.04,0-.05l-2.02-7.67s-.03-.04-.04-.04-.03.01-.04.04l-2,7.67s0,.03,0,.05Z"/>
        <path class="cls-2" d="M149.86,67.29v-.9c0-.08.02-.16.06-.25l5.8-10.75c.03-.06.01-.1-.04-.1h-5.63c-.13,0-.19-.06-.19-.19v-.8c0-.13.06-.19.19-.19h7.01c.13,0,.19.06.19.19v.9c0,.06-.02.15-.06.25l-5.8,10.75c-.03.06-.01.1.04.1h5.63c.13,0,.19.06.19.19v.8c0,.13-.06.19-.19.19h-7.01c-.13,0-.19-.06-.19-.19Z"/>
        <path class="cls-2" d="M159.71,67.29v-12.98c0-.13.06-.19.19-.19h.97c.13,0,.19.06.19.19v12.98c0,.13-.06.19-.19.19h-.97c-.13,0-.19-.06-.19-.19Z"/>
        <path class="cls-2" d="M171.07,54.12h.97c.13,0,.19.06.19.19v12.98c0,.13-.06.19-.19.19h-1.03c-.11,0-.19-.04-.23-.13l-5.12-10.21s-.05-.04-.07-.04-.03.02-.03.06l.02,10.14c0,.13-.06.19-.19.19h-.97c-.13,0-.19-.06-.19-.19v-12.98c0-.13.06-.19.19-.19h1.03c.11,0,.19.04.23.13l5.12,10.25s.05.04.07.04.03-.02.03-.06l-.02-10.17c0-.13.06-.19.19-.19Z"/>
        <path class="cls-2" d="M182.43,55.31h-5.73c-.05,0-.08.03-.08.08v4.73c0,.05.03.08.08.08h3.86c.13,0,.19.06.19.19v.8c0,.13-.06.19-.19.19h-3.86c-.05,0-.08.03-.08.08v4.77c0,.05.03.08.08.08h5.73c.13,0,.19.06.19.19v.8c0,.13-.06.19-.19.19h-6.97c-.13,0-.19-.06-.19-.19v-12.98c0-.13.06-.19.19-.19h6.97c.13,0,.19.06.19.19v.8c0,.13-.06.19-.19.19Z"/>
        <path class="cls-2" d="M185.51,66.69c-.71-.63-1.06-1.47-1.06-2.53v-.52c0-.13.06-.19.19-.19h.94c.13,0,.19.06.19.19v.44c0,.71.24,1.29.73,1.72.48.43,1.13.65,1.93.65.75,0,1.34-.2,1.78-.61.43-.41.65-.94.65-1.6,0-.43-.1-.81-.31-1.13-.2-.32-.5-.61-.9-.88-.39-.27-.96-.6-1.7-1.01-.79-.42-1.41-.79-1.86-1.11-.45-.32-.82-.71-1.1-1.16-.28-.46-.42-1.02-.42-1.68,0-1.03.33-1.84.99-2.42.66-.59,1.55-.88,2.65-.88,1.18,0,2.12.32,2.83.97.7.65,1.05,1.51,1.05,2.58v.44c0,.13-.06.19-.19.19h-.95c-.13,0-.19-.06-.19-.19v-.42c0-.71-.23-1.29-.69-1.73s-1.09-.66-1.89-.66c-.71,0-1.27.18-1.67.55-.4.37-.6.89-.6,1.56,0,.43.1.8.29,1.09.19.29.47.56.83.8.36.24.92.57,1.67.97.87.48,1.53.89,1.99,1.23.46.34.83.73,1.11,1.16.27.44.41.98.41,1.61,0,1.07-.34,1.92-1.03,2.55-.69.63-1.62.94-2.81.94s-2.15-.31-2.85-.94Z"/>
      </g>
    </g>
  </g>
</svg>