<?xml version="1.0" encoding="UTF-8"?>
<svg id="Layer_2" xmlns="http://www.w3.org/2000/svg" version="1.1" viewBox="0 0 500 500">
  <!-- Generator: Adobe Illustrator 30.3.0, SVG Export Plug-In . SVG Version: 2.1.3 Build 182)  -->
  <defs>
    <style>
      .st0 {
        fill: #a59890;
      }

      .st1 {
        fill: #e6007f;
      }
    </style>
  </defs>
  <path class="st1" d="M98.4,124.1s100.9,15.8,98.9,116.7c-2,100.9-82.1,100.9-82.1,100.9H4s22.1-89,22.1-89l51.4,1s55.4,4.6,61.3-53.4c5.9-58-40.5-76.1-40.5-76.1h0"/>
  <g>
    <path class="st0" d="M223.3,232.8v-46.1h14.1c5.7,0,10.2.9,13.5,2.8,3.3,1.9,6,4.7,7.9,8.3,2,3.7,2.9,7.6,2.9,12s-.5,6-1.6,8.8-2.6,5.3-4.6,7.4c-2,2.2-4.4,3.9-7.1,5-1.6.7-3,1.1-4.3,1.4-1.3.2-3.8.3-7.6.3h-13.2ZM236.8,192.6h-7.5v34.3h7.7c3,0,5.3-.2,7-.7,1.7-.5,3-1,4.2-1.7s2.1-1.5,3-2.6c3-3.3,4.4-7.5,4.4-12.5s-1.5-9-4.6-12.1c-1.1-1.2-2.4-2.1-3.9-2.9s-2.8-1.2-4.1-1.5-3.4-.4-6.3-.4Z"/>
    <path class="st0" d="M291.4,186c6.5,0,11.9,2.3,16.2,6.8,4.3,4.5,6.5,10.2,6.5,17s-2.2,12.4-6.5,16.9c-4.3,4.5-9.8,6.7-16.4,6.7s-11.6-2.2-15.8-6.7c-4.2-4.5-6.3-10-6.3-16.8s2.1-12.6,6.3-17.1c4.2-4.5,9.6-6.8,16.1-6.8ZM291.6,192.3c-4.8,0-8.7,1.7-11.8,5s-4.6,7.5-4.6,12.6,1.5,9.1,4.6,12.4,7,5,11.6,5,8.6-1.7,11.7-5.1,4.7-7.6,4.7-12.6-1.6-9-4.7-12.3-7-5-11.5-5Z"/>
    <path class="st0" d="M356.2,186.7h5.6v46.1h-6v-35.9l-12.9,17.8h-1.1l-13-17.8v35.9h-6v-46.1h5.7l13.9,18.9,13.8-18.9Z"/>
    <path class="st0" d="M385.7,186.4h4.2l18.8,46.4h-6.1l-5.6-13.7h-17.9l-5.2,13.7h-6.2l18-46.4ZM394.5,213.3l-6.8-16.7-6.3,16.7h13Z"/>
    <path class="st0" d="M415,232.8v-46.1h10.5c4.2,0,7.6,1.2,10.1,3.5,2.5,2.3,3.7,5.4,3.7,9.4s-.6,5-1.8,7c-1.2,2-3,3.4-5.2,4.4,1.3,1,2.6,2.3,3.9,4s3.1,4.6,5.4,8.8c1.5,2.6,2.6,4.6,3.5,5.9l2.2,3.3h-7.1l-1.8-3c0-.1-.2-.3-.4-.6l-1.2-1.8-1.9-3.4-2-3.6c-1.2-1.9-2.4-3.4-3.4-4.5s-2-1.9-2.8-2.4c-.8-.5-2.2-.7-4.2-.7h-1.6v20.1h-6ZM422.8,192.3h-1.8v14.6h2.3c3,0,5.1-.3,6.2-.9,1.1-.6,2-1.4,2.6-2.6s.9-2.5.9-3.9-.4-2.8-1-3.9c-.7-1.2-1.7-2-3-2.5-1.3-.5-3.4-.7-6.3-.7Z"/>
    <path class="st0" d="M486.7,186.7h5.7v46.1h-5.2l-28-35.5v35.5h-5.6v-46.1h4.9l28.2,35.8v-35.8Z"/>
    <path class="st0" d="M223.2,244.3h6v40.1h18.9v6h-24.8v-46.1Z"/>
    <path class="st0" d="M254.9,244.3h6v46.1h-6v-46.1Z"/>
    <path class="st0" d="M305,244.3h5.6v46.1h-6v-35.9l-12.9,17.8h-1.1l-13-17.8v35.9h-6v-46.1h5.7l13.9,18.9,13.8-18.9Z"/>
    <path class="st0" d="M321.3,244.3h6v46.1h-6v-46.1Z"/>
    <path class="st0" d="M334.5,244.3h35v5.9h-14.6v40.3h-6v-40.3h-14.4v-5.9Z"/>
    <path class="st0" d="M376.7,244.3h23.7v5.9h-17.7v14.1h17.1v5.9h-17.1v14.3h18.3v5.9h-24.3v-46.1Z"/>
    <path class="st0" d="M409,290.4v-46.1h14.1c5.7,0,10.2.9,13.5,2.8,3.3,1.9,6,4.7,7.9,8.3,2,3.7,2.9,7.6,2.9,12s-.5,6-1.6,8.8c-1.1,2.8-2.6,5.3-4.6,7.4-2,2.2-4.4,3.9-7.1,5-1.6.7-3,1.1-4.3,1.4-1.3.2-3.8.3-7.6.3h-13.2ZM422.5,250.2h-7.5v34.3h7.7c3,0,5.3-.2,7-.7,1.7-.5,3-1,4.2-1.7,1.1-.7,2.1-1.5,3-2.6,3-3.3,4.4-7.5,4.4-12.5s-1.5-9-4.6-12.1c-1.1-1.2-2.4-2.1-3.9-2.9s-2.8-1.2-4.1-1.5-3.4-.4-6.3-.4Z"/>
  </g>
</svg>