<?xml version="1.0" encoding="UTF-8" standalone="no"?>
<!DOCTYPE svg PUBLIC "-//W3C//DTD SVG 1.1//EN" "http://www.w3.org/Graphics/SVG/1.1/DTD/svg11.dtd">
<svg width="100%" height="100%" viewBox="0 0 1648 734" version="1.1" xmlns="http://www.w3.org/2000/svg" xmlns:xlink="http://www.w3.org/1999/xlink" xml:space="preserve" xmlns:serif="http://www.serif.com/" style="fill-rule:evenodd;clip-rule:evenodd;stroke-miterlimit:10;">
    <g transform="matrix(1,0,0,1,-742.97502,-1167.082444)">
        <g transform="matrix(4.166667,0,0,4.166667,0,0)">
            <g transform="matrix(1,0,0,1,182.746,341.6169)">
                <path d="M0,-46.7L0,0L10.807,0L10.807,-16.767L42.377,-16.767L42.377,-26.526L10.807,-26.526L10.807,-37.006L43.294,-37.006L43.294,-46.7L0,-46.7Z" style="fill:rgb(40,37,35);fill-rule:nonzero;stroke:rgb(40,37,35);stroke-width:0.88px;"/>
            </g>
        </g>
        <g transform="matrix(4.166667,0,0,4.166667,0,0)">
            <g transform="matrix(1,0,0,1,229.9044,294.9168)">
                <path d="M0,46.7L0,36.482L12.707,36.482L12.707,9.76L0,9.76L0,0L35.827,0L35.827,9.76L23.121,9.76L23.121,36.482L35.827,36.482L35.827,46.7L0,46.7Z" style="fill:rgb(40,37,35);fill-rule:nonzero;stroke:rgb(40,37,35);stroke-width:0.88px;"/>
            </g>
        </g>
        <g transform="matrix(4.166667,0,0,4.166667,0,0)">
            <g transform="matrix(1,0,0,1,280.5147,309.9808)">
                <path d="M0,16.572L0,31.636L-10.939,31.636L-10.939,-15.064L13.623,-15.064C30.064,-15.064 36.81,-10.544 36.81,-0.326C36.81,6.681 33.535,10.349 26.592,12.052C33.404,13.559 36.483,17.292 36.483,25.545L36.483,28.623C36.483,29.737 36.613,31.046 37.595,31.636L26.133,31.636C24.955,31.178 24.824,29.737 24.824,28.493L24.824,25.611C24.824,18.602 22.007,16.572 13.165,16.572L0,16.572ZM0,-5.763L0,7.205L13.099,7.205C20.37,7.205 25.479,6.747 25.479,1.18L25.479,0.328C25.479,-4.911 21.745,-5.763 13.493,-5.763L0,-5.763Z" style="fill:rgb(40,37,35);fill-rule:nonzero;stroke:rgb(40,37,35);stroke-width:0.88px;"/>
            </g>
        </g>
        <g transform="matrix(4.166667,0,0,4.166667,0,0)">
            <g transform="matrix(1,0,0,1,318.6858,311.6844)">
                <path d="M0,13.362L11.921,13.362C13.492,19.846 19.322,21.745 28.688,21.745C37.268,21.745 41.132,20.108 41.132,16.244C41.132,11.79 37.398,11.593 23.186,10.807C8.907,9.956 2.227,6.681 2.227,-3.144C2.227,-12.117 9.956,-17.946 25.15,-17.946C41.263,-17.946 49.974,-13.295 52.201,-1.637L40.477,-1.637C39.167,-7.532 33.731,-8.776 24.955,-8.776C16.178,-8.776 13.361,-6.746 13.361,-3.471C13.361,-0.196 15.13,1.048 28.295,1.637C45.128,2.423 52.201,5.96 52.201,15.457C52.201,25.413 44.735,31.308 28.426,31.308C10.021,31.308 2.423,25.806 0,13.362" style="fill:rgb(40,37,35);fill-rule:nonzero;stroke:rgb(40,37,35);stroke-width:0.88px;"/>
            </g>
        </g>
        <g transform="matrix(4.166667,0,0,4.166667,0,0)">
            <g transform="matrix(1,0,0,1,399.0203,332.2503)">
                <path d="M0,-27.967L0,9.367L-11.265,9.367L-11.265,-27.967L-28.033,-27.967L-28.033,-37.334L17.554,-37.334L17.554,-27.967L0,-27.967Z" style="fill:rgb(40,37,35);fill-rule:nonzero;stroke:rgb(40,37,35);stroke-width:0.88px;"/>
            </g>
        </g>
        <g transform="matrix(4.166667,0,0,4.166667,0,0)">
            <g transform="matrix(1,0,0,1,182.746,395.9808)">
                <path d="M0,-46.7L0,0L42.115,0L42.115,-10.348L11.134,-10.348L11.134,-46.7L0,-46.7Z" style="fill:rgb(40,37,35);fill-rule:nonzero;stroke:rgb(40,37,35);stroke-width:0.88px;"/>
            </g>
        </g>
        <g transform="matrix(4.166667,0,0,4.166667,0,0)">
            <g transform="matrix(1,0,0,1,228.9874,349.2804)">
                <path d="M0,46.701L0,36.483L12.707,36.483L12.707,9.76L0,9.76L0,0L35.827,0L35.827,9.76L23.121,9.76L23.121,36.483L35.827,36.483L35.827,46.701L0,46.701Z" style="fill:rgb(40,37,35);fill-rule:nonzero;stroke:rgb(40,37,35);stroke-width:0.88px;"/>
            </g>
        </g>
        <g transform="matrix(4.166667,0,0,4.166667,0,0)">
            <g transform="matrix(1,0,0,1,312.5622,362.184)">
                <path d="M0,21.025C-1.375,30.26 -8.318,35.107 -19.977,35.107C-35.303,35.107 -45.849,27.836 -45.849,11.069L-45.849,10.742C-45.849,-4.913 -34.059,-14.082 -17.75,-14.082C-2.685,-14.082 7.336,-8.777 9.432,3.471L-3.144,3.471C-4.192,-1.572 -8.58,-4.191 -17.422,-4.191C-28.23,-4.191 -34.517,0.328 -34.517,10.938L-34.517,11.003C-34.517,20.763 -29.016,25.675 -18.011,25.675C-7.86,25.675 -2.292,22.924 -0.983,17.685L-19.256,17.685L-19.256,8.58L9.759,8.58L9.759,33.797L0.655,33.797L0,21.025Z" style="fill:rgb(40,37,35);fill-rule:nonzero;stroke:rgb(40,37,35);stroke-width:0.88px;"/>
            </g>
        </g>
        <g transform="matrix(4.166667,0,0,4.166667,0,0)">
            <g transform="matrix(1,0,0,1,364.4377,367.3589)">
                <path d="M0,10.545L-27.182,10.545L-27.182,28.623L-38.185,28.623L-38.185,-18.078L-27.182,-18.078L-27.182,0.065L0,0.065L0,-18.078L10.872,-18.078L10.872,28.623L0,28.623L0,10.545Z" style="fill:rgb(40,37,35);fill-rule:nonzero;stroke:rgb(40,37,35);stroke-width:0.88px;"/>
            </g>
        </g>
        <g transform="matrix(4.166667,0,0,4.166667,0,0)">
            <g transform="matrix(1,0,0,1,407.2507,386.6159)">
                <path d="M0,-27.969L0,9.366L-11.265,9.366L-11.265,-27.969L-28.033,-27.969L-28.033,-37.335L17.553,-37.335L17.553,-27.969L0,-27.969Z" style="fill:rgb(40,37,35);fill-rule:nonzero;stroke:rgb(40,37,35);stroke-width:0.88px;"/>
            </g>
        </g>
        <g transform="matrix(4.166667,0,0,4.166667,0,0)">
            <g transform="matrix(1,0,0,1,182.746,450.3455)">
                <path d="M0,-46.7L0,0L10.807,0L10.807,-16.768L42.377,-16.768L42.377,-26.527L10.807,-26.527L10.807,-37.007L43.294,-37.007L43.294,-46.7L0,-46.7Z" style="fill:rgb(40,37,35);fill-rule:nonzero;stroke:rgb(40,37,35);stroke-width:0.88px;"/>
            </g>
        </g>
        <g transform="matrix(4.166667,0,0,4.166667,0,0)">
            <g transform="matrix(1,0,0,1,276.5389,403.645)">
                <path d="M0,46.7L-45.979,46.7L-45.979,0L-1.375,0L-1.375,9.235L-35.434,9.235L-35.434,18.667L-6.615,18.667L-6.615,27.901L-35.434,27.901L-35.434,37.137L0,37.137L0,46.7Z" style="fill:rgb(40,37,35);fill-rule:nonzero;stroke:rgb(40,37,35);stroke-width:0.88px;"/>
            </g>
        </g>
        <g transform="matrix(4.166667,0,0,4.166667,0,0)">
            <g transform="matrix(1,0,0,1,277.0626,420.4122)">
                <path d="M0,13.362L11.92,13.362C13.492,19.847 19.322,21.745 28.688,21.745C37.268,21.745 41.132,20.108 41.132,16.243C41.132,11.79 37.399,11.593 23.186,10.808C8.908,9.956 2.227,6.681 2.227,-3.144C2.227,-12.117 9.955,-17.946 25.151,-17.946C41.264,-17.946 49.975,-13.296 52.201,-1.637L40.478,-1.637C39.167,-7.532 33.731,-8.777 24.955,-8.777C16.178,-8.777 13.362,-6.746 13.362,-3.471C13.362,-0.197 15.13,1.048 28.295,1.637C45.128,2.423 52.201,5.96 52.201,15.457C52.201,25.413 44.735,31.308 28.426,31.308C10.021,31.308 2.424,25.807 0,13.362" style="fill:rgb(40,37,35);fill-rule:nonzero;stroke:rgb(40,37,35);stroke-width:0.88px;"/>
            </g>
        </g>
        <g transform="matrix(4.166667,0,0,4.166667,0,0)">
            <g transform="matrix(1,0,0,1,357.8222,440.9788)">
                <path d="M0,-27.968L0,9.366L-11.266,9.366L-11.266,-27.968L-28.033,-27.968L-28.033,-37.334L17.553,-37.334L17.553,-27.968L0,-27.968Z" style="fill:rgb(40,37,35);fill-rule:nonzero;stroke:rgb(40,37,35);stroke-width:0.88px;"/>
            </g>
        </g>
        <g transform="matrix(4.166667,0,0,4.166667,0,0)">
            <g transform="matrix(1,0,0,1,379.0432,403.645)">
                <path d="M0,46.7L0,36.482L12.707,36.482L12.707,9.759L0,9.759L0,0L35.827,0L35.827,9.759L23.121,9.759L23.121,36.482L35.827,36.482L35.827,46.7L0,46.7Z" style="fill:rgb(40,37,35);fill-rule:nonzero;stroke:rgb(40,37,35);stroke-width:0.88px;"/>
            </g>
        </g>
        <g transform="matrix(4.166667,0,0,4.166667,0,0)">
            <g transform="matrix(1,0,0,1,437.2708,403.645)">
                <path d="M0,46.7L-20.763,0L-8.777,0L6.026,34.648L22.203,0L34.059,0L11.2,46.7L0,46.7Z" style="fill:rgb(40,37,35);fill-rule:nonzero;stroke:rgb(40,37,35);stroke-width:0.88px;"/>
            </g>
        </g>
        <g transform="matrix(4.166667,0,0,4.166667,0,0)">
            <g transform="matrix(1,0,0,1,495.5641,413.7969)">
                <path d="M0,26.396L-25.872,26.396L-30.719,36.548L-42.574,36.548L-18.929,-10.152L-7.337,-10.152L16.702,36.548L4.977,36.548L0,26.396ZM-13.166,-0.262L-21.615,17.488L-4.454,17.488L-13.166,-0.262Z" style="fill:rgb(40,37,35);fill-rule:nonzero;stroke:rgb(40,37,35);stroke-width:0.88px;"/>
            </g>
        </g>
        <g transform="matrix(4.166667,0,0,4.166667,0,0)">
            <g transform="matrix(1,0,0,1,514.1652,450.3455)">
                <path d="M0,-46.7L0,0L42.115,0L42.115,-10.349L11.135,-10.349L11.135,-46.7L0,-46.7Z" style="fill:rgb(40,37,35);fill-rule:nonzero;stroke:rgb(40,37,35);stroke-width:0.88px;"/>
            </g>
        </g>
        <g transform="matrix(4.166667,0,0,4.166667,0,0)">
            <g transform="matrix(0.707107,0.707107,0.707107,-0.707107,492.9903,267.982722)">
                <path d="M-27.192,-65.647C24.082,-14.373 107.212,-14.373 158.486,-65.647" style="fill:none;fill-rule:nonzero;stroke:rgb(40,37,35);stroke-width:3px;"/>
            </g>
        </g>
    </g>
</svg>
