<svg xmlns="http://www.w3.org/2000/svg" viewBox="0 0 810 458"><defs><style>      .st0 {        fill: #fefefe;      }      .st1 {        fill: #1e1a53;      }      .st2 {        fill: #ffeacf;      }      .st3 {        display: none;      }      .st4 {        fill: #f75d5a;      }      .st5 {        fill: #00244d;      }    </style></defs><g id="Layer_1"><path class="st4" d="M218.09,110.08c-78.48,0-142.11,62.08-142.11,138.66,0,30.84,10.33,59.32,27.79,82.36,2.16.27,12.11,1.46,14.36.78,2.19-.66,7.14-2.44,10.83-2.54l17.96-19.85,9.18-10.23-6.61-.12,6.38-8.06,13.03-20.5,50.77-10.25-1.36,28.47-42.6,8.35-12.25,10.82-19.45,23.34-1.23,1.3c3.21.9,5.99,1.66,6.87,1.74,2.14.19,9.34-.38,11.86-.19,2.53.19,5.64,2.28,7.59,2.28s4.69-3.06,8-3.25c3.3-.19,12.81.4,20.98,4.2,8.17,3.8,17.7,3.23,21.2,3.04,1.13-.06,3.77.1,8.33.89.25-11.36-4.82-21.86-4.82-21.86,0,0,15.75-12.91,13.13-2.18-.99,4.02-.86,8.87-.32,13.35l4.41,3.35s13.23,11.01,18.38,12.05c5.16,1.04,20.13,5.03,22.56,7.88,1.51,1.77,2.16,3.16,2.43,3.95,1.06.39,2.12.77,3.21,1.17,3.22,1.35,6.57,3.49,9.66,5.52,38.53-24.8,63.97-67.39,63.97-115.8,0-76.58-63.63-138.66-142.11-138.66"></path><path class="st5" d="M255.39,399.35h-.09c-.54-.02-1.03-.29-1.4-.81-1.34-1.86-4.53-4.29-7.91-6.86-7.41-5.33-12.37-3.84-14.66-2.48-.52.31-1.16.4-1.74.26-.57-.14-1.05-.5-1.34-1-.88-1.49-1.76-4.08-.99-7.93l.34-2.92c.22-4.58.33-10.55-.09-13.56-.21-1.54-.72-3.36-1.26-5.29-.82-2.97-1.68-6.05-1.54-8.44.2-3.81.69-7.44.7-7.51.1-.49.2-1,.27-1.52-1.1-.46-3.29-1.22-4.54-.91-1.13.28-5.76.61-11.4.04-4.7-.47-10.09-1.57-14.71-3.82-8.87-4.33-18.22-2.89-19.72-2.62-.12.02-.19.04-.21.03l-.25-1.11c.44-.1,10.69-2.22,20.69,2.66,9.82,4.79,23.55,4.14,25.28,3.7,1.57-.38,3.85.39,4.99.85.03-.28.09-.44.17-.49,1.08-9.35-4.43-19.24-4.82-19.93-.07-.07-3.77-4.25-3.81-4.26l-1.64-1.55.48-.6s.08-.1.18-.2c2.02-1.92,4.02-3.18,4.92-3.7.3-.18.48-.26.49-.27l-.54-1.01c-.2.1-3.09,1.59-5.96,4.39-1.15-.47-3.27,0-5,.4l-.85.19c-3,.65-13.86,2.34-27.29-3.33l-.6-.26.32-.55c.13-.24.26-.48.4-.71,3.11-4.94,3.21-9.89,3.21-10.17l-1.17-.02c-.01.09-.21,8.52-7.01,14.05,0,0-7.97,7.23-15.55,11.15,1.69-2.1,3.25-4.63,3.65-7.17,1-4.81,5.43-7.26,5.46-7.29l-.57-1c-.2.12-4.95,2.74-6.06,8.09-.53,3.4-3.46,6.93-5.67,9.17-2.44,2.33-5.98,5-11.25,8.08,1.02.28,3.09.71,5.48.5l1.16-.1c3.32-.3,7.07-.65,9.99.27.89.28,1.7.66,2.48,1.04,2.12.98,4.12,1.94,7.82,1.17.36-.07.74-.13,1.12-.17.06-.02.13-.02.19-.03,5.18-.59,11.11,1.19,11.39,1.28l-.35,1.09c-.07-.02-6.98-2.09-12.1-1.03-1.49.3-2.74.35-3.85.24-1.94-.2-3.39-.87-4.73-1.5-.78-.37-1.52-.72-2.32-.97-2.7-.85-6.33-.51-9.52-.22l-1.16.1c-3.67.32-6.57-.73-6.69-.78l-.24.05c-1.51,1.01-2.83,1.82-4.58,2.84l-1.12.65c1.23-2.48,2.91-4.14,2.92-4.17l-.83-.81-.05-.02c-.96.99-2.04,2.4-2.92,4.29-3.26,9.3-14,19.54-14.43,19.95-4.77,4.96-13.27,11.28-16.74,10.77-.1-.02-.19-.04-.28-.06-1.34-.38-2.19-1.28-2.62-1.86-1.94,1-5.45,1.79-7.59-1.13-2.61-3.55,1.94-9.3,3-10.56,2.71-3.4,7.84-8.74,17.58-16.87,1.35-1.13,2.71-2.31,4.07-3.55.75-.68,1.49-1.37,2.23-2.07,12.59-11.93,25.21-27.71,28.81-32.3-2.51.41-4.24.44-4.4.44h-1.09s.6-.88.6-.88c.11-.17,2.84-4.25,3.72-5.11,3.92-4.65,12.61-19.22,12.7-19.37l.21-.35h0c.34-.65.62-1.25.98-1.96.06-.12.12-.24.17-.35,2.69-5.3,4.34-9.87,5.18-14.36,1.45-7.73,6.29-17.93,9.62-20.34,2.15-.65,10.78-3.5,13.84-8.2l-1-.62c-2.44,3.74-9.05,6.33-12.09,7.36l.06-.33c.03-.18,3.36-18.41,25.32-46.71,17.12-22.05,35.1-29.97,43.74-33.76,2.12-.94,3.94-1.74,4.27-2.19,1.12-1.55-1.75-5.88-3.88-8.33l-11.52-18.56c-.05-.07-4.13-5.58-4.41-13.89-1.32-.17-2.64-.32-3.97-.46-77.35-7.8-146.8,47.26-154.79,122.75-3.61,34.12,5.87,68.12,26.71,95.72l-.04.03c.28.07.54.15.79.22,8.62,2.46,19.3-.29,19.41-.31l.31,1.1c-.45.12-11.1,2.86-20.05.32-.45-.13-.93-.26-1.44-.41-2.89-.82-6.86-1.89-11.49-2.79l-.11-1.19c4.25.82,7.98,1.78,10.84,2.56-20.42-27.62-29.69-61.43-26.09-95.37,8.06-76.11,78.08-131.63,156.08-123.77,1.3.13,2.57.27,3.84.44.02-2.61.44-5.49,1.47-8.53,4.54-13.43,17.71-22.22,29.68-29.4,11.35-6.81,23.41-4.79,34.76-1.58,8.67,2.44,11.58,5.72,15.6,10.26.49.55.99,1.12,1.52,1.7.74.82,1.62,1.55,2.63,2.2,4.84,3.15,12.54,4.56,21.21,6.15,1.23.23,2.47.46,3.73.69,4.56.86,7.37,2.5,8.35,4.86,1.16,2.78-.7,5.44-.78,5.56l-1.24,1.73.17-2.1c0-.09.13-2.17-1.94-2.85-.69.16-3.07.6-7.84.12-1.85-.18-4.05-.51-6.65-1.04-12.14-2.47-15.23-2.67-16-2.56-.19.03-.41.07-.64.12-.77.16-1.74.38-2.86.08-1.12.61-6.13,3.04-17.56,4.47-1.02.13-2.03.2-3.02.19-.5.51-1.48,1.48-2.93,2.63-5.49,4.42-12.18,7.2-19.21,8.26-1.43.21-2.41.34-2.43.34l.15,1.14c.19-.03,3.2-.4,6.43-1.01v.05c.03.06,1.59,6.42,9.03,13.31,1.63,1.53,3.32,3.16,4.97,4.93l.35.2c22.21,13.56,40.16,32.85,51.89,55.76,12.05,23.54,16.95,49.89,14.17,76.19-4.37,41.3-27.13,78.12-62.53,101.17.85.57,1.72,1.18,2.6,1.82,8.07,5.94,18.47,6.41,18.57,6.4l-.04,1.15c-.09-.01-.57-.03-1.34-.1-3.13-.32-11.19-1.59-17.9-6.53-1-.74-1.98-1.41-2.94-2.03-5.78-3.75-10.78-5.57-12.27-6.07-.06.49-.24.87-.56,1.14-.54.48-1.37.51-2.21.09l-.1-.06c-.45-.29-.85-.49-1.15-.64-.7-.28-1.1-.38-1.47-.39-.58-.02-.98.09-1.32.37-.33.28-.05.76.05,1.2.29,1.31.77,4.07.35,5.49-.07.26-.17.47-.31.63-.31.33-.63.48-.96.45h-.01c-.53-.07-.8-.52-1.04-.96-.19-.33-.4-.7-.65-.79-.19-.06-.49-.13-.83-.2-1.28-.26-3.41-.68-6.11-2.89-1-.82-1.93-1.71-2.85-2.56-2.18-2.09-4.25-4.05-7.08-4.98-.94-.31-2.03-.6-3.19-.91-3.68-.97-8.15-2.15-12.53-5.03,1.63,2.97,4.37,7.24,9.25,10.56.79.54,1.91,1.28,3.24,2.14,5.66,3.71,15.82,11,15.82,11,7,4.57,6.9,9.68,6.22,12.31-.14.55-.58.97-1.14,1.1-.58.13-1.18-.05-1.57-.49-.78-.86-2.46-1.82-6.09-1.46-5.4.54-6.7,7.37-7.01,10.29-.28,2.7-1.91,5.33-3.55,5.75-.14.04-.27.06-.41.06h-.02Z"></path><path class="st4" d="M357.32,262.2c-4.35,41.13-27.09,77.76-62.43,100.61-6.46-4.06-11.71-5.71-12.33-5.89-.09-.45-.24-.93-.46-1.48-2.29-4.79-10.91-6.98-18.52-8.92-2.54-.65-4.95-1.26-6.92-1.92-7.14-2.39-20-13.94-21.6-15.38-.28-5.14.38-8.87.58-9.8.03-.13.05-.21.05-.23,2.08-9.16,9.27-19.1,13.13-24.44l1.64-2.28c-3.17,1.82-9.38,5.63-14.06,10.11l-.82-.82c5.11-4.9,12.01-9,14.96-10.65,6.15-4.78,11.65-11.29,20.91-22.25l1.35-1.58c26.95-32.78,28.3-73.56,28.31-73.97v-1.55c-2.33,2.2-5.5,4.14-9.32,3.76-.06,0-.12-.01-.17-.02l.14-1.14s.09.01.15.02c7.36.74,12.37-8.6,12.43-8.69l.03.02c2.17-4,3.95-9.63,4.72-17.57,1.28-13.01-5.84-25.24-14.14-34.81,20.58,13.32,37.24,31.69,48.33,53.34,11.96,23.34,16.81,49.46,14.05,75.55"></path><path class="st0" d="M221.73,310.03c-1.18.71-2.2,1.56-2.98,2.28.78-.73,1.8-1.58,2.98-2.29h0Z"></path><path class="st2" d="M249.24,359.61c.81.54,1.93,1.28,3.26,2.15,4.08,2.67,15.97,11.03,15.97,11.03,5.99,3.97,6.38,8.19,5.63,11.05-.06.22-.24.28-.32.3-.17.04-.35-.01-.46-.15-.95-1.06-2.94-2.25-7.05-1.83-6.22.62-7.68,8.08-8.01,11.26-.25,2.38-1.67,4.53-2.72,4.8-.2.06-.45.06-.71-.32-1.44-1.99-4.69-4.47-8.15-7.1-7.94-5.72-13.39-4.04-15.92-2.54-.27.16-.59.21-.88.14-.28-.07-.5-.24-.64-.48-.78-1.33-1.56-3.66-.86-7.2.01-.08.29-1.98.36-3.13,0,0,.19-5.21.18-8.68,0-2.06-.07-3.87-.24-5.01-.23-1.61-.74-3.46-1.28-5.43-.81-2.88-1.62-5.87-1.51-8.09.21-3.75.68-7.34.69-7.38.14-.66.16-1.28.11-1.82,1.29-6.76-1.02-13.87-2.86-18.11-.21-.49.25-.94.77-.82.29.07.48-.02.51-.34.06-.55.25-.94.63-1.06.04.05.07.09.11.13.5,1.21.96,2.82,1.4,4.82,1.22,5.55,1.54,11.46.96,17.57l.58.13.59.05v-.08c.6-6.22.27-12.24-.97-17.91-.3-1.36-.62-2.56-.95-3.59-.13-.39.08-.82.47-.98.78-.32.95-.5,1.46-.91.16-.13.44-.45,1.36-.56.22,0,.41.03.6.12.39.2.64.36,1.46.4.49.03.8-.11,1.01-.21.19-.1.24-.16.59-.19-.28,1.51-.81,5.28-.46,10.23.32,4.79,1.48,10.67,4.54,16.63.06.13.13.27.19.4.28.56.59,1.12.91,1.67,1.68,3.06,4.53,7.55,9.65,11.04"></path><path class="st2" d="M275.23,364.29c-.02.35-.04.62-.1.78-.01.03-.03.06-.04.09-.06-.09-.11-.18-.16-.26-.25-.44-.6-1.05-1.25-1.29-.28-.11-.62-.18-1.02-.25-1.24-.25-3.11-.62-5.58-2.64-.97-.79-1.89-1.67-2.78-2.52-1.91-1.82-3.88-3.69-6.41-4.81-.36-.16-.74-.3-1.12-.43-.97-.32-2.08-.61-3.26-.93-4.04-1.07-9.39-2.69-14.12-6.29-2.63-5.28-3.78-10.48-4.19-14.86,3.5,3.13,14.43,12.58,21.08,14.81,2.02.68,4.45,1.29,7.01,1.94,7.35,1.87,15.68,3.99,17.72,8.25.59,1.54.52,2.33.27,2.55-.14.14-.52.1-.89-.08-.2-.13-1.36-.64-1.36-.64,0,0-1.51-.52-2.77-.33-1.27.19-2.14.19-1.75,1.71.39,1.52.8,4.04.71,5.2"></path><path class="st2" d="M167.54,293.7c-4.2,5.01-17.18,22.78-26.17,38.17-1.01,1.07-2.13,2.55-3.04,4.53-3.18,9.09-14.06,19.46-14.17,19.57-5.49,5.7-13.65,11.04-15.86,10.41-1.51-.43-2.22-1.78-2.23-1.79l-.29-.57-.55.34c-.17.11-4.23,2.57-6.52-.54-.89-1.21-.62-2.92.07-4.58l.02-.02s.02-.06.03-.11c.83-1.93,2.21-3.77,3.03-4.68l-.03-.02c2.67-3.28,7.72-8.5,17.28-16.47,1.34-1.12,2.7-2.31,4.07-3.56,14.73-13.43,29.91-32.89,32-35.57,2.91-.62,6.47-1.73,9.85-3.77.85-.51,1.74-1,2.66-1.47-.09.08-.16.15-.16.15"></path><path class="st2" d="M197.56,281.87c-6.59,4.65-12.68,7.13-16.7,6.79-4.16-.35-7.1.92-10.21,2.26l-.55.24c-2.01.87-3.92,1.84-5.68,2.89-5.52,3.32-11.73,4.12-14.23,4.31.97-1.41,2.43-3.48,2.97-4.02,3.72-4.41,11.26-16.91,12.64-19.21.28.04.57.09.86.13,14.83,2.18,33.94-2.33,43.43-5.48-2.44,3.73-7.17,8.31-12.52,12.09"></path><path class="st0" d="M279.53,163.71c-1.94-2.06-4.41-3.09-7.34-3.03-12.82.2-30.67,20.2-30.85,20.41l-.89-.76c.74-.84,18.37-20.6,31.72-20.81,3.28-.05,6.04,1.09,8.22,3.4,2.2,2.34,3.07,6.17,2.59,11.36-.32,3.48-1.24,7.45-2.62,11.73-3.43,47.02-41.45,71.67-41.83,71.92l-.64-.96c.37-.23,35.33-22.92,40.82-66.26-8.59,22.67-27.88,51.32-40.88,60.87l-.71-.91c16.3-11.99,42.63-54.34,44.69-76.49.46-4.87-.31-8.39-2.28-10.47"></path><path class="st2" d="M294.61,94.34c.93-.21,1.89-.42,2.62-.79.42-.22.8-.43,1.13-.61,1.03-.58,1.54-.86,2.57-.72l.18-1.13c-1.41-.21-2.28.27-3.33.86-.32.18-.68.38-1.09.58-.06.04-.14.07-.21.1l.02-.07c-.81-.18-1.63-.44-2.09-.63.47-.35,1.44-.92,2.26-1.41l.65-.37c1.62-.96,2.93-3.68,3.8-5.49.23-.47.41-.88.57-1.17.32-.57,1.32-1.54,2.74-1.89,1.26-.3,2.57-.06,3.89.74.07.03.14.07.2.11,3.93,2.52,12.04,3.79,12.38,3.83,5.04,3.1,12.67,4.5,21.24,6.09,1.22.21,2.47.44,3.73.69.61.12,1.18.25,1.72.39,3.13.82,5.06,2.08,5.76,3.76.44,1.05.31,2.12.06,2.93-.39-.89-1.17-1.78-2.58-2.18-3.91-1.02-3.62-3.05-3.61-3.14l-1.16-.2s-.04.23-.02.52c-2.11.18-10.15.43-22.21-3.5-8.82-2.87-14.25-2.82-17.2-2.31-1.91.33-2.78.86-2.87.91l.64.97c.05-.03,5.17-3,19.05,1.53,6.38,2.07,11.62,3,15.5,3.4,3.89.39,6.43.24,7.39.14.31.64.89,1.37,2.03,1.98-2.13.13-5.95.06-11.98-1.17-9.39-1.92-14.91-2.79-16.4-2.58-.23.03-.47.08-.72.13-1.1.23-2.24.48-3.65-.58-1.35-1.03-4.77-3.27-7.57-2.24l.42,1.08c2.31-.85,5.52,1.36,6.43,2.05.13.11.27.19.4.27-1.95.89-6.96,2.76-16.35,3.94-1.15.15-2.28.2-3.37.17-.71-.01-1.39-.06-2.07-.15-.41-.05-.7-.11-.88-.15.1-.07.22-.14.31-.2.35-.23.72-.46.84-.86.15-.53-.32-.86-.74-1.16-.64-.45-1.12-.83-1.05-1.42.06-.53,1.48-.84,2.63-1.08"></path><path class="st5" d="M303.36,82.81c-.68.56-1.1,1.34-1.18,2.21-.08.87.19,1.71.77,2.38.53.61,1.25,1.01,2.06,1.13.07.01.14.02.21.03.89.08,1.75-.19,2.44-.75.68-.56,1.1-1.34,1.18-2.21.08-.87-.19-1.71-.77-2.38-.57-.67-1.37-1.08-2.27-1.15-.89-.08-1.75.19-2.44.75M303.26,85.11c.05-.58.34-1.11.8-1.49.46-.38,1.04-.55,1.64-.5.05,0,.09,0,.14.02.54.08,1.03.35,1.38.76.39.45.57,1.02.52,1.6-.05.58-.34,1.11-.8,1.49-.46.38-1.04.55-1.64.5-.6-.05-1.14-.33-1.52-.78-.39-.45-.57-1.02-.52-1.6Z"></path><text></text><text></text><text></text></g><g id="Layer_3" class="st3"><polygon class="st1" points="389.91 135.86 420.08 135.86 420.08 145.87 410.13 145.87 410.13 189.1 399.56 189.1 399.56 145.87 389.91 145.87 389.91 135.86"></polygon><polygon class="st1" points="440.89 135.86 451.46 135.86 451.46 155.95 469.7 155.95 469.7 135.86 480.18 135.86 480.18 189.1 469.7 189.1 469.7 165.74 451.46 165.74 451.46 189.1 440.89 189.1 440.89 135.86"></polygon><path class="st1" d="M532.05,144.46c-5.03,0-9.26,1.72-12.68,5.14-3.43,3.42-5.14,7.77-5.14,13.06,0,5.88,2.15,10.54,6.47,13.96,3.36,2.68,7.19,4.02,11.54,4.02,4.9,0,9.08-1.74,12.53-5.22,3.46-3.47,5.18-7.75,5.18-12.84s-1.74-9.36-5.22-12.86c-3.47-3.51-7.7-5.26-12.68-5.26M532.2,134.52c7.71,0,14.35,2.73,19.9,8.18,5.56,5.45,8.33,12.1,8.33,19.93s-2.74,14.35-8.22,19.72c-5.47,5.38-12.12,8.07-19.94,8.07s-15-2.77-20.4-8.29c-5.42-5.52-8.13-12.09-8.13-19.69,0-5.08,1.27-9.76,3.79-14.04,2.52-4.26,5.99-7.65,10.4-10.15,4.42-2.5,9.18-3.74,14.27-3.74Z"></path><path class="st1" d="M595.14,156.69h3.29c3.34,0,5.64-.42,6.9-1.27,1.25-.85,1.89-2.26,1.89-4.24,0-1.16-.32-2.17-.94-3.04-.62-.87-1.46-1.48-2.51-1.85-1.04-.38-2.96-.57-5.76-.57h-2.88v10.97ZM584.81,135.86h11.03c6.03,0,10.34.52,12.89,1.57,2.57,1.05,4.62,2.81,6.18,5.24,1.56,2.43,2.34,5.31,2.34,8.65s-.86,6.43-2.57,8.77c-1.72,2.36-4.31,4.14-7.76,5.34l12.88,23.67h-11.35l-12.26-22.54h-1.05v22.54h-10.33v-53.24Z"></path><path class="st1" d="M652.28,156.69h3.33c2.62,0,4.43-.19,5.46-.54,1.03-.37,1.82-.96,2.42-1.8.58-.84.87-1.85.87-3.05,0-2.06-.82-3.57-2.47-4.51-1.19-.7-3.42-1.06-6.66-1.06h-2.95v10.97ZM641.95,135.86h11.03c5.97,0,10.26.53,12.89,1.61,2.63,1.08,4.72,2.82,6.24,5.22,1.52,2.4,2.28,5.28,2.28,8.64,0,3.72-1,6.81-3,9.27-1.99,2.46-4.7,4.18-8.13,5.14-2.01.56-5.67.83-10.98.83v22.54h-10.34v-53.24Z"></path><polygon class="st1" points="698.48 135.86 728.27 135.86 728.27 145.79 708.81 145.79 708.81 155.36 728.27 155.36 728.27 165.15 708.81 165.15 708.81 179.16 728.27 179.16 728.27 189.1 698.48 189.1 698.48 135.86"></polygon><rect class="st1" x="394.47" y="216.76" width="10.33" height="53.24"></rect><path class="st1" d="M458.97,224l-7.7,6.62c-2.7-3.66-5.45-5.49-8.25-5.49-1.37,0-2.48.36-3.34,1.06-.87.72-1.3,1.52-1.3,2.41s.3,1.74.92,2.53c.85,1.06,3.39,3.34,7.64,6.83,3.96,3.24,6.37,5.28,7.22,6.12,2.1,2.08,3.6,4.05,4.48,5.94.87,1.9,1.32,3.97,1.32,6.2,0,4.37-1.55,7.97-4.65,10.83-3.09,2.84-7.13,4.26-12.12,4.26-3.89,0-7.27-.93-10.16-2.78-2.89-1.87-5.37-4.78-7.42-8.76l8.75-5.14c2.63,4.7,5.66,7.04,9.08,7.04,1.79,0,3.29-.51,4.51-1.52,1.22-1.01,1.82-2.19,1.82-3.51,0-1.2-.46-2.41-1.38-3.62-.91-1.2-2.94-3.05-6.07-5.54-5.95-4.72-9.79-8.37-11.53-10.94-1.74-2.57-2.61-5.13-2.61-7.69,0-3.69,1.44-6.86,4.32-9.49,2.89-2.64,6.45-3.97,10.68-3.97,2.72,0,5.32.62,7.78,1.84,2.47,1.24,5.13,3.47,8,6.74"></path><polygon class="st1" points="483.58 216.76 493.92 216.76 493.92 260.36 509.19 260.36 509.19 270 483.58 270 483.58 216.76"></polygon><path class="st1" d="M552.84,230.91l-7.4,18.33h14.76l-7.36-18.33ZM547.6,216.76h10.46l21,53.24h-10.8l-4.26-10.97h-22.37l-4.36,10.97h-10.8l21.13-53.24Z"></path><polygon class="st1" points="601.03 216.76 610.88 216.76 634.39 251.8 634.39 216.76 644.72 216.76 644.72 270 634.79 270 611.36 235.08 611.36 270 601.03 270 601.03 216.76"></polygon><path class="st1" d="M681.39,226.55v33.59h4.81c4.75,0,8.18-.53,10.32-1.59,2.14-1.06,3.89-2.85,5.24-5.36,1.35-2.51,2.04-5.6,2.04-9.28,0-5.65-1.62-10.03-4.85-13.15-2.91-2.81-7.6-4.2-14.05-4.2h-3.52ZM671.06,216.76h12.3c7.93,0,13.82.96,17.68,2.88,3.85,1.92,7.03,5.03,9.52,9.36,2.5,4.31,3.74,9.35,3.74,15.13,0,4.1-.7,7.87-2.09,11.31-1.39,3.44-3.33,6.29-5.79,8.56-2.46,2.26-5.12,3.83-7.98,4.71-2.86.87-7.83,1.3-14.89,1.3h-12.49v-53.24Z"></path><path class="st1" d="M405.49,327.62v13.64h2.63c4.37,0,7.32-.53,8.84-1.59,1.52-1.06,2.28-2.61,2.28-4.63,0-2.29-.89-4.1-2.67-5.43-1.79-1.32-4.75-1.99-8.89-1.99h-2.19ZM405.49,307.3v11.27h2.32c2.58,0,4.51-.52,5.76-1.57,1.25-1.04,1.87-2.46,1.87-4.25,0-1.67-.6-2.99-1.79-3.98-1.19-.98-3-1.47-5.43-1.47h-2.74ZM395.16,350.9v-53.24h8.61c5,0,8.65.31,10.97.94,3.28.85,5.89,2.42,7.83,4.71,1.94,2.3,2.91,5,2.91,8.12,0,2.03-.44,3.87-1.32,5.52-.87,1.66-2.31,3.21-4.28,4.66,3.31,1.52,5.72,3.41,7.26,5.7,1.53,2.27,2.29,4.97,2.29,8.08s-.8,5.71-2.38,8.17c-1.6,2.46-3.65,4.3-6.16,5.51-2.51,1.22-5.97,1.83-10.39,1.83h-15.35Z"></path><path class="st1" d="M478.7,306.27c-5.03,0-9.26,1.72-12.68,5.14-3.43,3.42-5.14,7.77-5.14,13.06,0,5.88,2.15,10.54,6.47,13.96,3.36,2.68,7.19,4.02,11.54,4.02,4.9,0,9.08-1.74,12.53-5.22,3.46-3.47,5.18-7.75,5.18-12.84s-1.74-9.36-5.22-12.86c-3.47-3.51-7.7-5.26-12.68-5.26M478.85,296.33c7.71,0,14.35,2.73,19.9,8.18,5.56,5.45,8.33,12.1,8.33,19.93s-2.74,14.35-8.22,19.72c-5.47,5.38-12.12,8.07-19.94,8.07s-15-2.77-20.4-8.29c-5.42-5.52-8.13-12.09-8.13-19.69,0-5.08,1.27-9.76,3.79-14.04,2.52-4.26,5.99-7.65,10.4-10.15,4.42-2.5,9.18-3.74,14.27-3.74Z"></path><path class="st1" d="M552.7,311.82l-7.4,18.33h14.76l-7.36-18.33ZM547.45,297.67h10.46l21,53.24h-10.8l-4.26-10.97h-22.37l-4.36,10.97h-10.8l21.13-53.24Z"></path><polygon class="st1" points="595.49 297.67 625.66 297.67 625.66 307.68 615.7 307.68 615.7 350.9 605.14 350.9 605.14 307.68 595.49 307.68 595.49 297.67"></polygon><path class="st1" d="M675.19,304.91l-7.7,6.62c-2.7-3.66-5.45-5.49-8.25-5.49-1.37,0-2.48.36-3.34,1.06-.87.72-1.3,1.52-1.3,2.41s.3,1.74.92,2.53c.85,1.06,3.39,3.34,7.64,6.83,3.96,3.24,6.37,5.28,7.22,6.12,2.1,2.08,3.6,4.05,4.48,5.94.87,1.9,1.32,3.97,1.32,6.2,0,4.37-1.54,7.97-4.65,10.83-3.09,2.84-7.13,4.26-12.12,4.26-3.89,0-7.27-.93-10.16-2.78-2.89-1.87-5.37-4.78-7.42-8.76l8.75-5.14c2.63,4.7,5.66,7.04,9.08,7.04,1.79,0,3.29-.51,4.51-1.52,1.22-1.01,1.82-2.19,1.82-3.51,0-1.2-.46-2.41-1.38-3.62-.91-1.2-2.94-3.05-6.07-5.54-5.95-4.72-9.79-8.37-11.53-10.94-1.74-2.57-2.61-5.13-2.61-7.69,0-3.69,1.44-6.86,4.32-9.49,2.89-2.64,6.45-3.97,10.68-3.97,2.72,0,5.32.62,7.78,1.84,2.47,1.24,5.13,3.47,8,6.74"></path></g><g id="Layer_2"><g><path class="st1" d="M413.16,160.31c4.44,0,8.05,1.16,10.85,3.47,2.79,2.31,4.19,5.2,4.19,8.66,0,2.22-.58,4.17-1.75,5.86-1.17,1.69-2.86,3.03-5.08,4.02v.42c3.37.76,6,2.27,7.88,4.52,1.88,2.25,2.82,4.89,2.82,7.92,0,2.68-.69,5.08-2.06,7.19-1.38,2.11-3.28,3.7-5.72,4.77-2.44,1.06-5.31,1.59-8.61,1.59h-20.27v-48.42h17.74ZM410.66,180.42c2.47,0,4.42-.59,5.86-1.77,1.43-1.18,2.15-2.82,2.15-4.92,0-1.87-.66-3.36-1.98-4.45-1.32-1.1-3.05-1.65-5.2-1.65h-6.72v12.79h5.89ZM412.84,201.42c3.17,0,5.56-.59,7.17-1.79,1.62-1.19,2.43-2.94,2.43-5.25,0-2.06-.8-3.68-2.41-4.87-1.61-1.19-3.76-1.78-6.46-1.78h-8.8v13.69h8.07Z"></path><path class="st1" d="M467.42,159.69c5.01,0,9.52,1.03,13.53,3.1,4.01,2.07,7.2,5.05,9.58,8.94,2.38,3.89,3.57,8.16,3.57,12.81s-1.16,8.73-3.48,12.6-5.51,6.87-9.57,9.01c-4.06,2.14-8.62,3.21-13.71,3.21s-9.57-1.09-13.67-3.26-7.29-5.16-9.58-8.96c-2.29-3.8-3.43-8-3.43-12.6s1.14-8.61,3.43-12.51c2.29-3.9,5.44-6.94,9.46-9.1,4.02-2.16,8.64-3.24,13.86-3.24ZM450.33,184.54c0,3.21.73,6.1,2.18,8.66,1.46,2.56,3.48,4.55,6.08,5.96,2.6,1.41,5.54,2.11,8.82,2.11,4.97,0,9.05-1.56,12.25-4.68,3.2-3.12,4.8-7.14,4.8-12.06,0-3.21-.72-6.1-2.17-8.68-1.44-2.58-3.48-4.57-6.1-5.98-2.62-1.41-5.57-2.11-8.85-2.11s-6.23.71-8.86,2.13c-2.62,1.42-4.64,3.41-6.05,5.96-1.41,2.55-2.11,5.45-2.11,8.68Z"></path><path class="st1" d="M528.62,160.31l21.38,48.42h-9.88l-5.03-11.78h-21.52l-4.68,11.78h-9.81l19.96-48.42h9.57ZM516.42,189.84h15.63l-8.18-19.17-7.45,19.17Z"></path><path class="st1" d="M592.8,160.31v7.31h-17.19v41.1h-9.36v-41.1h-17.19v-7.31h43.74Z"></path><path class="st1" d="M634.23,160.31v20.38h25.13v-20.38h9.36v48.42h-9.36v-20.45h-25.13v20.45h-9.36v-48.42h9.36Z"></path><path class="st1" d="M691.58,160.31v48.42h-9.36v-48.42h9.36Z"></path><path class="st1" d="M722.52,160.31c4.55,0,8.26,1.26,11.13,3.78,2.86,2.52,4.3,5.8,4.3,9.84,0,2.75-.71,5.15-2.13,7.19-1.42,2.04-3.53,3.66-6.33,4.83,1.55.83,2.92,1.96,4.12,3.4,1.2,1.43,2.69,3.85,4.47,7.24,2.96,5.87,5.15,9.91,6.58,12.13h-10.43c-.72-1.06-1.69-2.76-2.91-5.09-2.68-5.15-4.64-8.62-5.89-10.41-1.25-1.79-2.45-3.06-3.6-3.81-1.16-.75-2.48-1.13-3.99-1.13h-3.4v20.45h-9.36v-48.42h17.43ZM720.41,180.97c2.45,0,4.37-.61,5.77-1.84,1.4-1.22,2.1-2.9,2.1-5.03s-.69-3.88-2.08-4.97c-1.39-1.1-3.36-1.65-5.93-1.65h-5.82v13.48h5.96Z"></path><path class="st1" d="M784.73,160.31v7.31h-21.94v12.72h21v7.31h-21v13.76h22.42v7.31h-31.78v-48.42h31.3Z"></path><path class="st1" d="M403.62,236.31l28.76,33.79v-33.79h9.15v48.42h-8.04l-28.94-34.35v34.35h-9.15v-48.42h8.21Z"></path><path class="st1" d="M479.62,235.69c5.01,0,9.52,1.03,13.53,3.1,4.01,2.07,7.2,5.05,9.58,8.94,2.38,3.89,3.57,8.16,3.57,12.81s-1.16,8.73-3.48,12.6-5.51,6.87-9.57,9.01c-4.06,2.14-8.62,3.21-13.71,3.21s-9.57-1.09-13.67-3.26-7.29-5.16-9.58-8.96c-2.29-3.8-3.43-8-3.43-12.6s1.14-8.61,3.43-12.51c2.29-3.9,5.44-6.94,9.46-9.1,4.02-2.16,8.64-3.24,13.86-3.24ZM462.53,260.54c0,3.21.73,6.1,2.18,8.67,1.46,2.56,3.48,4.55,6.08,5.96,2.6,1.41,5.54,2.11,8.82,2.11,4.97,0,9.05-1.56,12.25-4.68s4.8-7.14,4.8-12.06c0-3.21-.72-6.1-2.17-8.68s-3.48-4.57-6.1-5.98-5.57-2.11-8.85-2.11-6.23.71-8.86,2.13c-2.62,1.42-4.64,3.41-6.05,5.96s-2.11,5.45-2.11,8.68Z"></path><path class="st1" d="M535.13,236.31c4.55,0,8.26,1.26,11.13,3.78,2.86,2.52,4.3,5.8,4.3,9.84,0,2.75-.71,5.15-2.13,7.19s-3.53,3.66-6.33,4.83c1.55.83,2.92,1.96,4.12,3.4,1.2,1.43,2.69,3.85,4.47,7.24,2.96,5.87,5.15,9.91,6.58,12.13h-10.43c-.72-1.06-1.69-2.76-2.91-5.09-2.68-5.15-4.64-8.62-5.89-10.41-1.25-1.79-2.45-3.06-3.6-3.81-1.16-.75-2.48-1.13-3.99-1.13h-3.4v20.45h-9.36v-48.42h17.43ZM533.02,256.97c2.45,0,4.37-.61,5.77-1.84,1.4-1.22,2.1-2.9,2.1-5.03s-.69-3.88-2.08-4.97c-1.39-1.1-3.36-1.65-5.93-1.65h-5.82v13.48h5.96Z"></path><path class="st1" d="M567.11,236.31l12.06,29.87,12.68-29.87h7.9l12.75,29.98,12.03-29.98h9.57l-19.93,49.04h-3.15l-15.25-35.91-15.32,35.91h-3.05l-19.96-49.04h9.67Z"></path><path class="st1" d="M651.91,236.31v48.42h-9.36v-48.42h9.36Z"></path><path class="st1" d="M690.83,235.69c2.75,0,5.44.31,8.08.94s5.48,1.69,8.53,3.19v8.8c-2.98-1.71-5.74-2.95-8.27-3.71s-5.17-1.14-7.92-1.14c-3.44,0-6.55.71-9.32,2.13-2.77,1.42-4.93,3.42-6.46,6.01-1.54,2.59-2.3,5.46-2.3,8.63s.76,6.13,2.29,8.7c1.52,2.56,3.67,4.55,6.45,5.94,2.77,1.4,5.89,2.1,9.36,2.1,2.66,0,5.19-.38,7.61-1.14,2.41-.76,5.46-2.14,9.13-4.12v8.8c-3.14,1.64-6.03,2.81-8.66,3.5s-5.71,1.04-9.22,1.04c-5.11,0-9.67-1.02-13.69-3.05-4.02-2.03-7.18-4.96-9.48-8.79-2.3-3.82-3.45-8.01-3.45-12.56,0-4.87,1.18-9.25,3.55-13.13,2.37-3.88,5.63-6.87,9.77-8.98,4.15-2.1,8.82-3.15,14.02-3.15Z"></path><path class="st1" d="M728.87,236.31v20.38h25.13v-20.38h9.36v48.42h-9.36v-20.45h-25.13v20.45h-9.36v-48.42h9.36Z"></path></g></g></svg>