<?xml version="1.0" encoding="UTF-8"?>
<svg id="Layer_1" xmlns="http://www.w3.org/2000/svg" version="1.1" viewBox="0 0 810 458">
  <!-- Generator: Adobe Illustrator 30.3.0, SVG Export Plug-In . SVG Version: 2.1.3 Build 182)  -->
  <defs>
    <style>
      .st0 {
        fill: #fff;
      }

      .st1 {
        fill: #00244d;
      }

      .st2 {
        fill: #fefefe;
      }

      .st3 {
        fill: #3387cc;
      }

      .st4 {
        fill: #1e1a53;
      }

      .st5 {
        fill: #ffeacf;
      }

      .st6 {
        display: none;
      }

      .st7 {
        fill: #f75d5a;
      }
    </style>
  </defs>
  <g id="Layer_11" data-name="Layer_1">
    <path class="st7" d="M218.1,110.1c-78.5,0-142.1,62.1-142.1,138.7s10.3,59.3,27.8,82.4c2.2.3,12.1,1.5,14.4.8,2.2-.7,7.1-2.4,10.8-2.5l18-19.9,9.2-10.2h-6.6c0-.1,6.4-8.2,6.4-8.2l13-20.5,50.8-10.2-1.4,28.5-42.6,8.4-12.2,10.8-19.4,23.3-1.2,1.3c3.2.9,6,1.7,6.9,1.7,2.1.2,9.3-.4,11.9-.2,2.5.2,5.6,2.3,7.6,2.3s4.7-3.1,8-3.2c3.3-.2,12.8.4,21,4.2,8.2,3.8,17.7,3.2,21.2,3,1.1,0,3.8.1,8.3.9.2-11.4-4.8-21.9-4.8-21.9,0,0,15.8-12.9,13.1-2.2-1,4-.9,8.9-.3,13.4l4.4,3.4s13.2,11,18.4,12c5.2,1,20.1,5,22.6,7.9,1.5,1.8,2.2,3.2,2.4,4,1.1.4,2.1.8,3.2,1.2,3.2,1.4,6.6,3.5,9.7,5.5,38.5-24.8,64-67.4,64-115.8,0-76.6-63.6-138.7-142.1-138.7"/>
    <path class="st3" d="M255.4,399.4h0c-.5,0-1-.3-1.4-.8-1.3-1.9-4.5-4.3-7.9-6.9-7.4-5.3-12.4-3.8-14.7-2.5-.5.3-1.2.4-1.7.3-.6-.1-1.1-.5-1.3-1-.9-1.5-1.8-4.1-1-7.9l.3-2.9c.2-4.6.3-10.5,0-13.6-.2-1.5-.7-3.4-1.3-5.3-.8-3-1.7-6-1.5-8.4.2-3.8.7-7.4.7-7.5.1-.5.2-1,.3-1.5-1.1-.5-3.3-1.2-4.5-.9-1.1.3-5.8.6-11.4,0-4.7-.5-10.1-1.6-14.7-3.8-8.9-4.3-18.2-2.9-19.7-2.6-.1,0-.2,0-.2,0l-.2-1.1c.4-.1,10.7-2.2,20.7,2.7,9.8,4.8,23.6,4.1,25.3,3.7,1.6-.4,3.9.4,5,.9,0-.3,0-.4.2-.5,1.1-9.4-4.4-19.2-4.8-19.9,0,0-3.8-4.2-3.8-4.3l-1.6-1.5.5-.6s0-.1.2-.2c2-1.9,4-3.2,4.9-3.7.3-.2.5-.3.5-.3l-.5-1c-.2.1-3.1,1.6-6,4.4-1.1-.5-3.3,0-5,.4l-.9.2c-3,.6-13.9,2.3-27.3-3.3l-.6-.3.3-.5c.1-.2.3-.5.4-.7,3.1-4.9,3.2-9.9,3.2-10.2h-1.2c0,0-.2,8.5-7,14,0,0-8,7.2-15.6,11.1,1.7-2.1,3.2-4.6,3.6-7.2,1-4.8,5.4-7.3,5.5-7.3l-.6-1c-.2.1-4.9,2.7-6.1,8.1-.5,3.4-3.5,6.9-5.7,9.2-2.4,2.3-6,5-11.2,8.1,1,.3,3.1.7,5.5.5h1.2c3.3-.4,7.1-.8,10,.2.9.3,1.7.7,2.5,1,2.1,1,4.1,1.9,7.8,1.2.4,0,.7-.1,1.1-.2,0,0,.1,0,.2,0,5.2-.6,11.1,1.2,11.4,1.3l-.4,1.1c0,0-7-2.1-12.1-1-1.5.3-2.7.4-3.9.2-1.9-.2-3.4-.9-4.7-1.5-.8-.4-1.5-.7-2.3-1-2.7-.9-6.3-.5-9.5-.2h-1.2c-3.7.4-6.6-.6-6.7-.7h-.2c-1.5,1.1-2.8,1.9-4.6,2.9l-1.1.6c1.2-2.5,2.9-4.1,2.9-4.2l-.8-.8h0c-1,1-2,2.4-2.9,4.3-3.3,9.3-14,19.5-14.4,20-4.8,5-13.3,11.3-16.7,10.8,0,0-.2,0-.3,0-1.3-.4-2.2-1.3-2.6-1.9-1.9,1-5.4,1.8-7.6-1.1-2.6-3.5,1.9-9.3,3-10.6,2.7-3.4,7.8-8.7,17.6-16.9,1.3-1.1,2.7-2.3,4.1-3.5.8-.7,1.5-1.4,2.2-2.1,12.6-11.9,25.2-27.7,28.8-32.3-2.5.4-4.2.4-4.4.4h-1.1l.6-.9c.1-.2,2.8-4.2,3.7-5.1,3.9-4.6,12.6-19.2,12.7-19.4l.2-.4h0c.3-.6.6-1.2,1-2,0-.1.1-.2.2-.4,2.7-5.3,4.3-9.9,5.2-14.4,1.4-7.7,6.3-17.9,9.6-20.3,2.1-.6,10.8-3.5,13.8-8.2l-1-.6c-2.4,3.7-9.1,6.3-12.1,7.4v-.3c0-.2,3.4-18.4,25.4-46.7,17.1-22.1,35.1-30,43.7-33.8,2.1-.9,3.9-1.7,4.3-2.2,1.1-1.6-1.8-5.9-3.9-8.3l-11.5-18.6c0,0-4.1-5.6-4.4-13.9-1.3-.2-2.6-.3-4-.5-77.3-7.8-146.8,47.3-154.8,122.7-3.6,34.1,5.9,68.1,26.7,95.7h0c.3.1.5.2.8.2,8.6,2.5,19.3-.3,19.4-.3l.3,1.1c-.4.1-11.1,2.9-20.1.3-.4-.1-.9-.3-1.4-.4-2.9-.8-6.9-1.9-11.5-2.8v-1.2c4.1.8,7.9,1.8,10.7,2.6-20.4-27.6-29.7-61.4-26.1-95.4,8.1-76.1,78.1-131.6,156.1-123.8,1.3.1,2.6.3,3.8.4,0-2.6.4-5.5,1.5-8.5,4.5-13.4,17.7-22.2,29.7-29.4,11.4-6.8,23.4-4.8,34.8-1.6,8.7,2.4,11.6,5.7,15.6,10.3.5.6,1,1.1,1.5,1.7.7.8,1.6,1.6,2.6,2.2,4.8,3.2,12.5,4.6,21.2,6.2,1.2.2,2.5.5,3.7.7,4.6.9,7.4,2.5,8.4,4.9,1.2,2.8-.7,5.4-.8,5.6l-1.2,1.7.2-2.1c0,0,.1-2.2-1.9-2.8-.7.2-3.1.6-7.8.1-1.9-.2-4-.5-6.6-1-12.1-2.5-15.2-2.7-16-2.6-.2,0-.4,0-.6.1-.8.2-1.7.4-2.9,0-1.1.6-6.1,3-17.6,4.5-1,.1-2,.2-3,.2-.5.5-1.5,1.5-2.9,2.6-5.5,4.4-12.2,7.2-19.2,8.3-1.4.2-2.4.3-2.4.3v1.1c.3,0,3.4-.4,6.6-1h0c0,.1,1.6,6.5,9,13.4,1.6,1.5,3.3,3.2,5,4.9l.4.2c22.2,13.6,40.2,32.8,51.9,55.8,12,23.5,17,49.9,14.2,76.2-4.4,41.3-27.1,78.1-62.5,101.2.9.6,1.7,1.2,2.6,1.8,8.1,5.9,18.5,6.4,18.6,6.4v1.1c-.1,0-.6,0-1.4-.1-3.1-.3-11.2-1.6-17.9-6.5-1-.7-2-1.4-2.9-2-5.8-3.8-10.8-5.6-12.3-6.1,0,.5-.2.9-.6,1.1-.5.5-1.4.5-2.2,0h-.1c-.5-.4-.9-.5-1.1-.7-.7-.3-1.1-.4-1.5-.4-.6,0-1,0-1.3.4-.3.3,0,.8,0,1.2.3,1.3.8,4.1.4,5.5,0,.3-.2.5-.3.6-.3.3-.6.5-1,.5h0c-.5,0-.8-.5-1-1-.2-.3-.4-.7-.6-.8-.2,0-.5-.1-.8-.2-1.3-.3-3.4-.7-6.1-2.9-1-.8-1.9-1.7-2.9-2.6-2.2-2.1-4.2-4-7.1-5-.9-.3-2-.6-3.2-.9-3.7-1-8.1-2.1-12.5-5,1.6,3,4.4,7.2,9.2,10.6.8.5,1.9,1.3,3.2,2.1,5.7,3.7,15.8,11,15.8,11,7,4.6,6.9,9.7,6.2,12.3-.1.5-.6,1-1.1,1.1-.6.1-1.2,0-1.6-.5-.8-.9-2.5-1.8-6.1-1.5-5.4.5-6.7,7.4-7,10.3-.3,2.7-1.9,5.3-3.6,5.8-.1,0-.3,0-.4,0h0,0Z"/>
    <path class="st7" d="M357.3,262.2c-4.4,41.1-27.1,77.8-62.4,100.6-6.5-4.1-11.7-5.7-12.3-5.9,0-.5-.2-.9-.5-1.5-2.3-4.8-10.9-7-18.5-8.9-2.5-.6-5-1.3-6.9-1.9-7.1-2.4-20-13.9-21.6-15.4-.3-5.1.4-8.9.6-9.8,0-.1,0-.2,0-.2,2.1-9.2,9.3-19.1,13.1-24.4l1.6-2.3c-3.2,1.8-9.4,5.6-14.1,10.1l-.8-.8c5.1-4.9,12-9,15-10.6,6.1-4.8,11.6-11.3,20.9-22.2l1.4-1.6c27-32.8,28.3-73.6,28.3-74v-1.6c-2.3,2.2-5.5,4.1-9.3,3.8,0,0-.1,0-.2,0v-1.1c.1,0,.2,0,.3,0,7.4.7,12.4-8.6,12.4-8.7h0c2.2-4,4-9.6,4.7-17.6,1.3-13-5.8-25.2-14.1-34.8,20.6,13.3,37.2,31.7,48.3,53.3,12,23.3,16.8,49.5,14,75.5"/>
    <path class="st2" d="M221.7,310c-1.2.7-2.2,1.6-3,2.3.8-.7,1.8-1.6,3-2.3h0Z"/>
    <path class="st5" d="M249.2,359.6c.8.5,1.9,1.3,3.3,2.1,4.1,2.7,16,11,16,11,6,4,6.4,8.2,5.6,11,0,.2-.2.3-.3.3-.2,0-.4,0-.5-.1-1-1.1-2.9-2.2-7-1.8-6.2.6-7.7,8.1-8,11.3-.2,2.4-1.7,4.5-2.7,4.8-.2,0-.4,0-.7-.3-1.4-2-4.7-4.5-8.1-7.1-7.9-5.7-13.4-4-15.9-2.5-.3.2-.6.2-.9.1-.3,0-.5-.2-.6-.5-.8-1.3-1.6-3.7-.9-7.2,0,0,.3-2,.4-3.1,0,0,.2-5.2.2-8.7,0-2.1,0-3.9-.2-5-.2-1.6-.7-3.5-1.3-5.4-.8-2.9-1.6-5.9-1.5-8.1.2-3.8.7-7.3.7-7.4.1-.7.2-1.3.1-1.8,1.3-6.8-1-13.9-2.9-18.1-.2-.5.2-.9.8-.8.3,0,.5,0,.5-.3,0-.5.2-.9.6-1.1,0,0,0,0,.1.1.5,1.2,1,2.8,1.4,4.8,1.2,5.5,1.5,11.5,1,17.6h.6c0,.1.6.2.6.2h0c.6-6.3.3-12.3-1-18-.3-1.4-.6-2.6-.9-3.6-.1-.4,0-.8.5-1,.8-.3.9-.5,1.5-.9.2-.1.4-.5,1.4-.6.2,0,.4,0,.6.1.4.2.6.4,1.5.4.5,0,.8-.1,1-.2.2-.1.2-.2.6-.2-.3,1.5-.8,5.3-.5,10.2.3,4.8,1.5,10.7,4.5,16.6,0,.1.1.3.2.4.3.6.6,1.1.9,1.7,1.7,3.1,4.5,7.5,9.6,11"/>
    <path class="st5" d="M275.2,364.3c0,.4,0,.6-.1.8,0,0,0,0,0,0,0,0-.1-.2-.2-.3-.2-.4-.6-1-1.2-1.3-.3-.1-.6-.2-1-.2-1.2-.2-3.1-.6-5.6-2.6-1-.8-1.9-1.7-2.8-2.5-1.9-1.8-3.9-3.7-6.4-4.8-.4-.2-.7-.3-1.1-.4-1-.3-2.1-.6-3.3-.9-4-1.1-9.4-2.7-14.1-6.3-2.6-5.3-3.8-10.5-4.2-14.9,3.5,3.1,14.4,12.6,21.1,14.8,2,.7,4.5,1.3,7,1.9,7.4,1.9,15.7,4,17.7,8.2.6,1.5.5,2.3.3,2.5-.1.1-.5.1-.9,0-.2-.1-1.4-.6-1.4-.6,0,0-1.5-.5-2.8-.3-1.3.2-2.1.2-1.8,1.7s.8,4,.7,5.2"/>
    <path class="st5" d="M167.5,293.7c-4.2,5-17.2,22.8-26.2,38.2-1,1.1-2.1,2.5-3,4.5-3.2,9.1-14.1,19.5-14.2,19.6-5.5,5.7-13.7,11-15.9,10.4-1.5-.4-2.2-1.8-2.2-1.8l-.3-.6-.6.3c-.2.1-4.2,2.6-6.5-.5-.9-1.2-.6-2.9,0-4.6h0s0,0,0-.1c.8-1.9,2.2-3.8,3-4.7h0c2.7-3.3,7.7-8.5,17.3-16.5,1.3-1.1,2.7-2.3,4.1-3.6,14.7-13.4,29.9-32.9,32-35.6,2.9-.6,6.5-1.7,9.9-3.8.9-.5,1.7-1,2.7-1.5,0,0-.2.1-.2.1"/>
    <path class="st5" d="M197.6,281.9c-6.6,4.6-12.7,7.1-16.7,6.8-4.2-.4-7.1.9-10.2,2.3l-.6.2c-2,.9-3.9,1.8-5.7,2.9-5.5,3.3-11.7,4.1-14.2,4.3,1-1.4,2.4-3.5,3-4,3.7-4.4,11.3-16.9,12.6-19.2.3,0,.6,0,.9.1,14.8,2.2,33.9-2.3,43.4-5.5-2.4,3.7-7.2,8.3-12.5,12.1"/>
    <path class="st2" d="M279.5,163.7c-1.9-2.1-4.4-3.1-7.3-3-12.8.2-30.7,20.2-30.9,20.4l-.9-.8c.7-.8,18.4-20.6,31.7-20.8,3.3,0,6,1.1,8.2,3.4,2.2,2.3,3.1,6.2,2.6,11.4-.3,3.5-1.2,7.4-2.6,11.7-3.4,47-41.4,71.7-41.8,71.9l-.6-1c.4-.2,35.3-22.9,40.8-66.3-8.6,22.7-27.9,51.3-40.9,60.9l-.7-.9c16.3-12,42.6-54.3,44.7-76.5.5-4.9-.3-8.4-2.3-10.5"/>
    <path class="st5" d="M294.6,94.3c.9-.2,1.9-.4,2.6-.8.4-.2.8-.4,1.1-.6,1-.6,1.5-.9,2.6-.7l.2-1.1c-1.4-.2-2.3.3-3.3.9-.3.2-.7.4-1.1.6,0,0-.1,0-.2,0h0c-.8-.2-1.6-.5-2.1-.7.5-.3,1.4-.9,2.3-1.4l.6-.4c1.6-1,2.9-3.7,3.8-5.5.2-.5.4-.9.6-1.2.3-.6,1.3-1.5,2.7-1.9,1.3-.3,2.6,0,3.9.7,0,0,.1,0,.2.1,3.9,2.5,12,3.8,12.4,3.8,5,3.1,12.7,4.5,21.2,6.1,1.2.2,2.5.4,3.7.7.6.1,1.2.2,1.7.4,3.1.8,5.1,2.1,5.8,3.8.4,1.1.3,2.1,0,2.9-.4-.9-1.2-1.8-2.6-2.2-3.9-1-3.6-3.1-3.6-3.1l-1.2-.2s0,.2,0,.5c-2.1.2-10.1.4-22.2-3.5-8.8-2.9-14.2-2.8-17.2-2.3-1.9.3-2.8.9-2.9.9l.6,1s5.2-3,19,1.5c6.4,2.1,11.6,3,15.5,3.4,3.9.4,6.4.2,7.4.1.3.6.9,1.4,2,2-2.1.1-6,0-12-1.2-9.4-1.9-14.9-2.8-16.4-2.6-.2,0-.5,0-.7.1-1.1.2-2.2.5-3.6-.6-1.4-1-4.8-3.3-7.6-2.2l.4,1.1c2.3-.8,5.5,1.4,6.4,2.1.1.1.3.2.4.3-2,.9-7,2.8-16.4,3.9-1.1.2-2.3.2-3.4.2-.7,0-1.4,0-2.1-.2-.4,0-.7-.1-.9-.2.1,0,.2-.1.3-.2.4-.2.7-.5.8-.9.1-.5-.3-.9-.7-1.2-.6-.4-1.1-.8-1-1.4,0-.5,1.5-.8,2.6-1.1"/>
    <path class="st1" d="M303.4,82.8c-.7.6-1.1,1.3-1.2,2.2s.2,1.7.8,2.4c.5.6,1.2,1,2.1,1.1,0,0,.1,0,.2,0,.9,0,1.8-.2,2.4-.8.7-.6,1.1-1.3,1.2-2.2s-.2-1.7-.8-2.4c-.6-.7-1.4-1.1-2.3-1.2-.9,0-1.8.2-2.4.8M303.3,85.1c0-.6.3-1.1.8-1.5s1-.6,1.6-.5c0,0,0,0,.1,0,.5,0,1,.3,1.4.8.4.4.6,1,.5,1.6,0,.6-.3,1.1-.8,1.5s-1,.6-1.6.5-1.1-.3-1.5-.8c-.4-.4-.6-1-.5-1.6h0Z"/>
  </g>
  <g id="Layer_31" data-name="Layer_3" class="st6">
    <polygon class="st4" points="389.9 135.9 420.1 135.9 420.1 145.9 410.1 145.9 410.1 189.1 399.6 189.1 399.6 145.9 389.9 145.9 389.9 135.9"/>
    <polygon class="st4" points="440.9 135.9 451.5 135.9 451.5 155.9 469.7 155.9 469.7 135.9 480.2 135.9 480.2 189.1 469.7 189.1 469.7 165.7 451.5 165.7 451.5 189.1 440.9 189.1 440.9 135.9"/>
    <path class="st4" d="M532,144.5c-5,0-9.3,1.7-12.7,5.1-3.4,3.4-5.1,7.8-5.1,13.1s2.2,10.5,6.5,14c3.4,2.7,7.2,4,11.5,4s9.1-1.7,12.5-5.2c3.5-3.5,5.2-7.8,5.2-12.8s-1.7-9.4-5.2-12.9c-3.5-3.5-7.7-5.3-12.7-5.3M532.2,134.5c7.7,0,14.3,2.7,19.9,8.2,5.6,5.4,8.3,12.1,8.3,19.9s-2.7,14.4-8.2,19.7c-5.5,5.4-12.1,8.1-19.9,8.1s-15-2.8-20.4-8.3c-5.4-5.5-8.1-12.1-8.1-19.7s1.3-9.8,3.8-14c2.5-4.3,6-7.6,10.4-10.1,4.4-2.5,9.2-3.7,14.3-3.7h0Z"/>
    <path class="st4" d="M595.1,156.7h3.3c3.3,0,5.6-.4,6.9-1.3,1.2-.9,1.9-2.3,1.9-4.2s-.3-2.2-.9-3-1.5-1.5-2.5-1.9c-1-.4-3-.6-5.8-.6h-2.9v11h0ZM584.8,135.9h11c6,0,10.3.5,12.9,1.6,2.6,1.1,4.6,2.8,6.2,5.2,1.6,2.4,2.3,5.3,2.3,8.6s-.9,6.4-2.6,8.8c-1.7,2.4-4.3,4.1-7.8,5.3l12.9,23.7h-11.3l-12.3-22.5h-1v22.5h-10.3v-53.2h0Z"/>
    <path class="st4" d="M652.3,156.7h3.3c2.6,0,4.4-.2,5.5-.5,1-.4,1.8-1,2.4-1.8.6-.8.9-1.9.9-3.1,0-2.1-.8-3.6-2.5-4.5-1.2-.7-3.4-1.1-6.7-1.1h-3v11h0ZM642,135.9h11c6,0,10.3.5,12.9,1.6s4.7,2.8,6.2,5.2,2.3,5.3,2.3,8.6-1,6.8-3,9.3c-2,2.5-4.7,4.2-8.1,5.1-2,.6-5.7.8-11,.8v22.5h-10.3v-53.2h0Z"/>
    <polygon class="st4" points="698.5 135.9 728.3 135.9 728.3 145.8 708.8 145.8 708.8 155.4 728.3 155.4 728.3 165.1 708.8 165.1 708.8 179.2 728.3 179.2 728.3 189.1 698.5 189.1 698.5 135.9"/>
    <rect class="st4" x="394.5" y="216.8" width="10.3" height="53.2"/>
    <path class="st4" d="M459,224l-7.7,6.6c-2.7-3.7-5.5-5.5-8.2-5.5s-2.5.4-3.3,1.1c-.9.7-1.3,1.5-1.3,2.4s.3,1.7.9,2.5c.9,1.1,3.4,3.3,7.6,6.8,4,3.2,6.4,5.3,7.2,6.1,2.1,2.1,3.6,4.1,4.5,5.9.9,1.9,1.3,4,1.3,6.2,0,4.4-1.5,8-4.6,10.8-3.1,2.8-7.1,4.3-12.1,4.3s-7.3-.9-10.2-2.8c-2.9-1.9-5.4-4.8-7.4-8.8l8.8-5.1c2.6,4.7,5.7,7,9.1,7s3.3-.5,4.5-1.5c1.2-1,1.8-2.2,1.8-3.5s-.5-2.4-1.4-3.6c-.9-1.2-2.9-3.1-6.1-5.5-6-4.7-9.8-8.4-11.5-10.9s-2.6-5.1-2.6-7.7c0-3.7,1.4-6.9,4.3-9.5,2.9-2.6,6.5-4,10.7-4s5.3.6,7.8,1.8c2.5,1.2,5.1,3.5,8,6.7"/>
    <polygon class="st4" points="483.6 216.8 493.9 216.8 493.9 260.4 509.2 260.4 509.2 270 483.6 270 483.6 216.8"/>
    <path class="st4" d="M552.8,230.9l-7.4,18.3h14.8l-7.4-18.3ZM547.6,216.8h10.5l21,53.2h-10.8l-4.3-11h-22.4l-4.4,11h-10.8l21.1-53.2h0Z"/>
    <polygon class="st4" points="601 216.8 610.9 216.8 634.4 251.8 634.4 216.8 644.7 216.8 644.7 270 634.8 270 611.4 235.1 611.4 270 601 270 601 216.8"/>
    <path class="st4" d="M681.4,226.6v33.6h4.8c4.8,0,8.2-.5,10.3-1.6s3.9-2.9,5.2-5.4,2-5.6,2-9.3c0-5.6-1.6-10-4.8-13.1-2.9-2.8-7.6-4.2-14-4.2h-3.5,0ZM671.1,216.8h12.3c7.9,0,13.8,1,17.7,2.9,3.8,1.9,7,5,9.5,9.4,2.5,4.3,3.7,9.4,3.7,15.1s-.7,7.9-2.1,11.3-3.3,6.3-5.8,8.6c-2.5,2.3-5.1,3.8-8,4.7-2.9.9-7.8,1.3-14.9,1.3h-12.5v-53.2h0Z"/>
    <path class="st4" d="M405.5,327.6v13.6h2.6c4.4,0,7.3-.5,8.8-1.6s2.3-2.6,2.3-4.6-.9-4.1-2.7-5.4c-1.8-1.3-4.8-2-8.9-2h-2.2,0ZM405.5,307.3v11.3h2.3c2.6,0,4.5-.5,5.8-1.6,1.2-1,1.9-2.5,1.9-4.2s-.6-3-1.8-4c-1.2-1-3-1.5-5.4-1.5h-2.7,0ZM395.2,350.9v-53.2h8.6c5,0,8.6.3,11,.9,3.3.9,5.9,2.4,7.8,4.7,1.9,2.3,2.9,5,2.9,8.1s-.4,3.9-1.3,5.5c-.9,1.7-2.3,3.2-4.3,4.7,3.3,1.5,5.7,3.4,7.3,5.7,1.5,2.3,2.3,5,2.3,8.1s-.8,5.7-2.4,8.2c-1.6,2.5-3.6,4.3-6.2,5.5-2.5,1.2-6,1.8-10.4,1.8h-15.4,0Z"/>
    <path class="st4" d="M478.7,306.3c-5,0-9.3,1.7-12.7,5.1-3.4,3.4-5.1,7.8-5.1,13.1s2.1,10.5,6.5,14c3.4,2.7,7.2,4,11.5,4s9.1-1.7,12.5-5.2c3.5-3.5,5.2-7.8,5.2-12.8s-1.7-9.4-5.2-12.9c-3.5-3.5-7.7-5.3-12.7-5.3M478.9,296.3c7.7,0,14.4,2.7,19.9,8.2,5.6,5.5,8.3,12.1,8.3,19.9s-2.7,14.4-8.2,19.7c-5.5,5.4-12.1,8.1-19.9,8.1s-15-2.8-20.4-8.3c-5.4-5.5-8.1-12.1-8.1-19.7s1.3-9.8,3.8-14c2.5-4.3,6-7.6,10.4-10.1,4.4-2.5,9.2-3.7,14.3-3.7h0Z"/>
    <path class="st4" d="M552.7,311.8l-7.4,18.3h14.8l-7.4-18.3ZM547.5,297.7h10.5l21,53.2h-10.8l-4.3-11h-22.4l-4.4,11h-10.8l21.1-53.2h0Z"/>
    <polygon class="st4" points="595.5 297.7 625.7 297.7 625.7 307.7 615.7 307.7 615.7 350.9 605.1 350.9 605.1 307.7 595.5 307.7 595.5 297.7"/>
    <path class="st4" d="M675.2,304.9l-7.7,6.6c-2.7-3.7-5.5-5.5-8.2-5.5s-2.5.4-3.3,1.1c-.9.7-1.3,1.5-1.3,2.4s.3,1.7.9,2.5c.8,1.1,3.4,3.3,7.6,6.8,4,3.2,6.4,5.3,7.2,6.1,2.1,2.1,3.6,4,4.5,5.9.9,1.9,1.3,4,1.3,6.2,0,4.4-1.5,8-4.7,10.8-3.1,2.8-7.1,4.3-12.1,4.3s-7.3-.9-10.2-2.8c-2.9-1.9-5.4-4.8-7.4-8.8l8.8-5.1c2.6,4.7,5.7,7,9.1,7s3.3-.5,4.5-1.5c1.2-1,1.8-2.2,1.8-3.5s-.5-2.4-1.4-3.6c-.9-1.2-2.9-3-6.1-5.5-6-4.7-9.8-8.4-11.5-10.9-1.7-2.6-2.6-5.1-2.6-7.7,0-3.7,1.4-6.9,4.3-9.5,2.9-2.6,6.5-4,10.7-4s5.3.6,7.8,1.8c2.5,1.2,5.1,3.5,8,6.7"/>
  </g>
  <g id="Layer_21" data-name="Layer_2">
    <g>
      <path class="st0" d="M413.2,160.3c4.4,0,8,1.2,10.9,3.5,2.8,2.3,4.2,5.2,4.2,8.7s-.6,4.2-1.8,5.9-2.9,3-5.1,4v.4c3.4.8,6,2.3,7.9,4.5s2.8,4.9,2.8,7.9-.7,5.1-2.1,7.2c-1.4,2.1-3.3,3.7-5.7,4.8-2.4,1.1-5.3,1.6-8.6,1.6h-20.3v-48.4h17.7ZM410.7,180.4c2.5,0,4.4-.6,5.9-1.8,1.4-1.2,2.1-2.8,2.1-4.9s-.7-3.4-2-4.4c-1.3-1.1-3-1.6-5.2-1.6h-6.7v12.8h5.9ZM412.8,201.4c3.2,0,5.6-.6,7.2-1.8,1.6-1.2,2.4-2.9,2.4-5.2s-.8-3.7-2.4-4.9c-1.6-1.2-3.8-1.8-6.5-1.8h-8.8v13.7h8.1,0Z"/>
      <path class="st0" d="M467.4,159.7c5,0,9.5,1,13.5,3.1s7.2,5.1,9.6,8.9c2.4,3.9,3.6,8.2,3.6,12.8s-1.2,8.7-3.5,12.6-5.5,6.9-9.6,9-8.6,3.2-13.7,3.2-9.6-1.1-13.7-3.3-7.3-5.2-9.6-9c-2.3-3.8-3.4-8-3.4-12.6s1.1-8.6,3.4-12.5c2.3-3.9,5.4-6.9,9.5-9.1s8.6-3.2,13.9-3.2h0ZM450.3,184.5c0,3.2.7,6.1,2.2,8.7,1.5,2.6,3.5,4.6,6.1,6,2.6,1.4,5.5,2.1,8.8,2.1,5,0,9-1.6,12.2-4.7s4.8-7.1,4.8-12.1-.7-6.1-2.2-8.7c-1.4-2.6-3.5-4.6-6.1-6-2.6-1.4-5.6-2.1-8.9-2.1s-6.2.7-8.9,2.1c-2.6,1.4-4.6,3.4-6,6-1.4,2.6-2.1,5.4-2.1,8.7h0Z"/>
      <path class="st0" d="M528.6,160.3l21.4,48.4h-9.9l-5-11.8h-21.5l-4.7,11.8h-9.8l20-48.4h9.6ZM516.4,189.8h15.6l-8.2-19.2-7.5,19.2Z"/>
      <path class="st0" d="M592.8,160.3v7.3h-17.2v41.1h-9.4v-41.1h-17.2v-7.3h43.7Z"/>
      <path class="st0" d="M634.2,160.3v20.4h25.1v-20.4h9.4v48.4h-9.4v-20.4h-25.1v20.4h-9.4v-48.4h9.4Z"/>
      <path class="st0" d="M691.6,160.3v48.4h-9.4v-48.4h9.4Z"/>
      <path class="st0" d="M722.5,160.3c4.5,0,8.3,1.3,11.1,3.8,2.9,2.5,4.3,5.8,4.3,9.8s-.7,5.1-2.1,7.2c-1.4,2-3.5,3.7-6.3,4.8,1.5.8,2.9,2,4.1,3.4,1.2,1.4,2.7,3.9,4.5,7.2,3,5.9,5.2,9.9,6.6,12.1h-10.4c-.7-1.1-1.7-2.8-2.9-5.1-2.7-5.1-4.6-8.6-5.9-10.4-1.2-1.8-2.5-3.1-3.6-3.8-1.2-.8-2.5-1.1-4-1.1h-3.4v20.4h-9.4v-48.4h17.4ZM720.4,181c2.5,0,4.4-.6,5.8-1.8,1.4-1.2,2.1-2.9,2.1-5s-.7-3.9-2.1-5c-1.4-1.1-3.4-1.6-5.9-1.6h-5.8v13.5h6Z"/>
      <path class="st0" d="M784.7,160.3v7.3h-21.9v12.7h21v7.3h-21v13.8h22.4v7.3h-31.8v-48.4h31.3Z"/>
      <path class="st0" d="M403.6,236.3l28.8,33.8v-33.8h9.1v48.4h-8l-28.9-34.4v34.4h-9.1v-48.4h8.2Z"/>
      <path class="st0" d="M479.6,235.7c5,0,9.5,1,13.5,3.1s7.2,5.1,9.6,8.9c2.4,3.9,3.6,8.2,3.6,12.8s-1.2,8.7-3.5,12.6-5.5,6.9-9.6,9-8.6,3.2-13.7,3.2-9.6-1.1-13.7-3.3-7.3-5.2-9.6-9c-2.3-3.8-3.4-8-3.4-12.6s1.1-8.6,3.4-12.5c2.3-3.9,5.4-6.9,9.5-9.1s8.6-3.2,13.9-3.2h0ZM462.5,260.5c0,3.2.7,6.1,2.2,8.7,1.5,2.6,3.5,4.5,6.1,6,2.6,1.4,5.5,2.1,8.8,2.1,5,0,9-1.6,12.2-4.7s4.8-7.1,4.8-12.1-.7-6.1-2.2-8.7-3.5-4.6-6.1-6-5.6-2.1-8.9-2.1-6.2.7-8.9,2.1c-2.6,1.4-4.6,3.4-6,6s-2.1,5.4-2.1,8.7h0Z"/>
      <path class="st0" d="M535.1,236.3c4.5,0,8.3,1.3,11.1,3.8,2.9,2.5,4.3,5.8,4.3,9.8s-.7,5.1-2.1,7.2-3.5,3.7-6.3,4.8c1.5.8,2.9,2,4.1,3.4,1.2,1.4,2.7,3.9,4.5,7.2,3,5.9,5.2,9.9,6.6,12.1h-10.4c-.7-1.1-1.7-2.8-2.9-5.1-2.7-5.1-4.6-8.6-5.9-10.4s-2.5-3.1-3.6-3.8c-1.2-.8-2.5-1.1-4-1.1h-3.4v20.5h-9.4v-48.4h17.4ZM533,257c2.5,0,4.4-.6,5.8-1.8,1.4-1.2,2.1-2.9,2.1-5s-.7-3.9-2.1-5c-1.4-1.1-3.4-1.6-5.9-1.6h-5.8v13.5h6Z"/>
      <path class="st0" d="M567.1,236.3l12.1,29.9,12.7-29.9h7.9l12.8,30,12-30h9.6l-19.9,49h-3.2l-15.2-35.9-15.3,35.9h-3l-20-49h9.7Z"/>
      <path class="st0" d="M651.9,236.3v48.4h-9.4v-48.4h9.4Z"/>
      <path class="st0" d="M690.8,235.7c2.8,0,5.4.3,8.1.9s5.5,1.7,8.5,3.2v8.8c-3-1.7-5.7-2.9-8.3-3.7s-5.2-1.1-7.9-1.1-6.5.7-9.3,2.1-4.9,3.4-6.5,6c-1.5,2.6-2.3,5.5-2.3,8.6s.8,6.1,2.3,8.7c1.5,2.6,3.7,4.5,6.5,5.9,2.8,1.4,5.9,2.1,9.4,2.1s5.2-.4,7.6-1.1c2.4-.8,5.5-2.1,9.1-4.1v8.8c-3.1,1.6-6,2.8-8.7,3.5s-5.7,1-9.2,1c-5.1,0-9.7-1-13.7-3s-7.2-5-9.5-8.8c-2.3-3.8-3.5-8-3.5-12.6s1.2-9.2,3.5-13.1,5.6-6.9,9.8-9c4.2-2.1,8.8-3.1,14-3.1h0Z"/>
      <path class="st0" d="M728.9,236.3v20.4h25.1v-20.4h9.4v48.4h-9.4v-20.5h-25.1v20.5h-9.4v-48.4h9.4Z"/>
    </g>
  </g>
</svg>