<svg xmlns="http://www.w3.org/2000/svg" id="Layer_1" viewBox="0 0 617.72 357.59"><defs><style>      .st0 {        fill: #707070;      }      .st1 {        stroke: #9e9e9e;      }      .st1, .st2 {        fill: none;        stroke-miterlimit: 10;        stroke-width: 6.8px;      }      .st3 {        fill: #9e9e9e;      }      .st2 {        stroke: #707070;      }    </style></defs><g><path class="st1" d="M319.75,7.69h-21.4c-53.51,0-96.89,43.38-96.89,96.89s43.38,96.89,96.89,96.89h28.13v-84.03"></path><path class="st2" d="M297.97,255.06h21.4c53.51,0,96.89-43.38,96.89-96.89s-43.38-96.89-96.89-96.89h-28.13v84.03"></path></g><g><g><polyline class="st3" points="429.29 312.08 429.29 314.61 410.91 314.61 410.91 330.32 428.81 330.32 428.81 332.88 410.91 332.88 410.91 348.81 429.74 348.81 429.74 351.34 407.88 351.34 407.88 312.08"></polyline><polyline class="st3" points="485.28 312.08 485.28 351.34 482.79 351.34 452.94 317.03 452.94 351.34 449.91 351.34 449.91 312.08 452.48 312.08 482.25 346.39 482.25 312.08"></polyline><polyline class="st3" points="511.29 312.08 511.29 348.81 530.71 348.81 530.71 351.34 508.26 351.34 508.26 312.08"></polyline><polyline class="st3" points="570.66 312.08 570.66 314.61 552.28 314.61 552.28 330.32 570.18 330.32 570.18 332.88 552.28 332.88 552.28 348.81 571.11 348.81 571.11 351.34 549.25 351.34 549.25 312.08"></polyline><polyline class="st3" points="595.57 329.5 610.15 312.08 613.85 312.08 598.59 330.26 598.59 351.34 595.56 351.34 595.56 329.5"></polyline><path class="st3" d="M354.79,348.81h10.45c5.08,0,9.31-1.56,12.69-4.68,3.38-3.12,5.07-7.26,5.07-12.41s-1.67-9.15-5-12.34c-3.33-3.18-7.65-4.78-12.95-4.78h-10.25v-2.51l10.08-.03c6.95,0,12.26,1.83,15.92,5.48,3.66,3.65,5.49,8.37,5.49,14.16s-1.81,10.37-5.44,14.06c-3.63,3.7-8.77,5.55-15.44,5.55l-10.62.03"></path></g><g><polyline class="st0" points="71.72 316.75 55.95 351.34 52.77 351.34 70.92 311.8 72.58 311.8 90.73 351.34 87.55 351.34"></polyline><path class="st0" d="M108.45,312.08h10.06c4.22,0,7.44.91,9.67,2.74,2.23,1.83,3.34,4.29,3.34,7.4,0,4.53-2.49,7.72-7.47,9.55,1.29.62,3.03,2.61,5.23,5.99,0,0,3.53,6.34,4.56,7.89,1.03,1.54,4.32,5.68,4.32,5.68h-3.59s-1.96-2.41-3.17-4.23c-1.44-2.17-2.29-4.19-3.67-6.53-1.38-2.34-4.06-5.84-5.34-6.73-1.27-.89-3.14-1.34-5.59-1.34h-5.31v18.83h-3.03M111.48,314.61v15.37h6.52c3.32,0,5.85-.67,7.6-2.01,1.75-1.34,2.63-3.24,2.63-5.69s-.89-4.3-2.67-5.65c-1.78-1.35-4.34-2.02-7.67-2.02h-6.41Z"></path><polyline class="st0" points="241.82 312.08 241.82 351.34 239.32 351.34 209.47 317.03 209.47 351.34 206.44 351.34 206.44 312.08 209.01 312.08 238.78 346.39 238.78 312.08"></polyline><polyline class="st0" points="286.74 312.08 286.74 314.61 268.36 314.61 268.36 330.32 286.26 330.32 286.26 332.88 268.36 332.88 268.36 348.81 287.19 348.81 287.19 351.34 265.33 351.34 265.33 312.08"></polyline><path class="st0" d="M36.34,334.38v16.75h-11.59c-6.67,0-11.82-1.85-15.44-5.55-3.63-3.7-5.44-8.39-5.44-14.07s1.83-10.51,5.49-14.16c3.66-3.65,8.97-5.6,15.92-5.6l9.87-.02v2.78h-10.04c-5.3.01-9.62,1.49-12.95,4.67-3.34,3.19-5,7.3-5,12.34s1.69,9.29,5.07,12.41c3.38,3.12,7.61,4.68,12.69,4.68h8.67v-14.22"></path><path class="st0" d="M153.73,348.84h10.45c5.08,0,9.31-1.56,12.69-4.68,3.38-3.12,5.07-7.25,5.07-12.41s-1.67-9.15-5-12.34c-3.33-3.18-7.65-4.78-12.95-4.78h-10.25v-2.51l10.08-.03c6.95,0,12.26,1.83,15.92,5.48,3.66,3.65,5.49,8.37,5.49,14.16s-1.81,10.37-5.44,14.06c-3.63,3.7-8.77,5.55-15.44,5.55l-10.62.03"></path><path class="st0" d="M308.31,312.12h10.06c4.22,0,7.44.91,9.67,2.74,2.23,1.83,3.34,4.29,3.34,7.4,0,4.53-2.49,7.72-7.47,9.55,1.29.62,3.03,2.61,5.23,5.99,0,0,3.53,6.34,4.56,7.89,1.03,1.55,4.32,5.68,4.32,5.68h-3.59s-1.96-2.41-3.17-4.23c-1.44-2.17-2.29-4.19-3.67-6.53-1.38-2.34-4.06-5.84-5.34-6.73-1.27-.89-3.14-1.34-5.59-1.34h-5.31v18.83h-3.03M311.35,314.65v15.37h6.52c3.32,0,5.85-.67,7.6-2.01,1.75-1.34,2.63-3.24,2.63-5.69s-.89-4.3-2.67-5.65c-1.78-1.35-4.34-2.02-7.67-2.02h-6.41Z"></path></g></g></svg>